<svg width="1920" height="261" viewBox="0 0 1920 261" fill="none" xmlns="http://www.w3.org/2000/svg">
<g opacity="0.12">
<path d="M10.8184 0.5L62.2188 214.304C62.412 215.431 63.4462 219.239 65.2168 225.661L65.2197 225.671L65.2227 225.68C65.988 228.079 66.9239 231.68 68.21 236.437L68.7031 238.261L69.1768 236.431L130.237 0.5H210.125L272.81 236.434L273.271 238.174L273.772 236.445C275.06 232.006 276.859 224.592 279.253 214.3L332.104 0.5H402.911L309.432 350.5H224.238L162.923 118.668L162.431 116.809L161.954 118.673L102.774 350.5H18.3516L-77.3447 0.5H10.8184Z" stroke="#EEEFF6"/>
<path d="M611.791 0.5L728.024 350.5H635.302L612.458 278.622L612.347 278.273H491.211L491.1 278.619L467.83 350.5H392.433L511.475 0.5H611.791ZM551.942 90.6523L512.177 213.792L512.567 213.918V214.446H592.185L591.978 213.795L552.895 90.6553L552.422 89.166L551.942 90.6523Z" stroke="#EEEFF6"/>
<path d="M1036.27 0.5V66.3379H858.131V139.323H998.205V204.438H858.131V282.088H1036.27V350.5H770.062V0.5H1036.27Z" stroke="#EEEFF6"/>
<path d="M1177.44 0.5V282.088H1325.6V350.5H1090.03V0.5H1177.44Z" stroke="#EEEFF6"/>
<path d="M1554.08 0.5L1670.9 350.5H1577.7L1554.74 278.621L1554.63 278.273H1432.89L1432.78 278.618L1409.39 350.5H1333.61L1453.25 0.5H1554.08ZM1493.93 90.6523L1453.96 213.792L1454.35 213.918V214.446H1534.37L1534.16 213.794L1494.88 90.6543L1494.41 89.1738L1493.93 90.6523Z" stroke="#EEEFF6"/>
<path d="M1885.92 0.580078C1916.96 0.580107 1940.25 4.19971 1955.85 11.3135C1971.48 18.4381 1984.3 28.681 1994.41 41.9658C2004.48 55.2186 2009.58 71.3555 2009.58 90.4844C2009.58 109.806 2004.02 125.892 1992.93 138.769C1981.83 151.653 1965.16 161.364 1942.87 167.861L1942.9 168.831C1968.67 174.283 1987.93 185.173 2000.72 201.306V201.307C2013.55 217.555 2019.99 235.142 2019.99 254.242C2019.99 280.308 2009.48 302.859 1988.49 321.916C1967.55 340.934 1933.4 350.5 1886 350.5H1713.02V0.580078H1885.92ZM1798.98 286.512H1866.46C1889.36 286.512 1905.63 282.733 1915.24 275.062C1924.85 267.395 1929.6 256.705 1929.6 243.062C1929.6 231.567 1925 221.704 1915.78 213.413C1906.59 205.085 1891.34 200.898 1870.22 200.898H1798.98V286.512ZM1799.48 62.0117H1798.98V139.404H1865.52C1877.62 139.404 1887.53 138.276 1895.21 136.005C1902.89 133.735 1908.38 130.308 1911.59 125.676C1917.85 116.613 1921.06 107.909 1921.06 99.5732C1921.06 90.5419 1918.47 82.7874 1913.19 76.2559C1907.94 69.7644 1902.22 65.6644 1895.86 64.0215H1895.86C1889.64 62.394 1877.38 61.5928 1859.21 61.5928H1799.48V62.0117Z" stroke="#EEEFF6"/>
</g>
</svg>
