<svg width="700" height="485" viewBox="0 0 700 485" fill="none" xmlns="http://www.w3.org/2000/svg">
<g clip-path="url(#clip0_297_8323)">
<path d="M629.86 480.886H583.492V481.236H629.86V480.886Z" fill="#EBEBEB"/>
<path d="M463.709 484.694H451.543V485.044H463.709V484.694Z" fill="#EBEBEB"/>
<path d="M582.093 467.894H555.227V468.244H582.093V467.894Z" fill="#EBEBEB"/>
<path d="M133.911 470.246H73.4453V470.596H133.911V470.246Z" fill="#EBEBEB"/>
<path d="M155.245 470.246H146.383V470.596H155.245V470.246Z" fill="#EBEBEB"/>
<path d="M315.211 476.154H184.059V476.504H315.211V476.154Z" fill="#EBEBEB"/>
<path d="M333.76 395.92H63.4198C61.2996 395.92 59.2663 395.078 57.7672 393.579C56.268 392.079 55.4258 390.046 55.4258 387.926V7.924C55.4442 5.81601 56.2946 3.80065 57.7918 2.31659C59.2889 0.832527 61.3117 -8.08163e-05 63.4198 5.88357e-09H333.76C334.81 5.88358e-09 335.849 0.206769 336.819 0.608505C337.789 1.01024 338.67 1.59908 339.412 2.34139C340.155 3.0837 340.744 3.96495 341.145 4.93483C341.547 5.90471 341.754 6.94421 341.754 7.994V387.926C341.754 388.976 341.547 390.015 341.145 390.985C340.744 391.955 340.155 392.836 339.412 393.579C338.67 394.321 337.789 394.91 336.819 395.312C335.849 395.713 334.81 395.92 333.76 395.92ZM63.4198 0.280001C61.3936 0.283702 59.4515 1.09024 58.0187 2.52296C56.586 3.95569 55.7795 5.89782 55.7758 7.924V387.926C55.7795 389.952 56.586 391.894 58.0187 393.327C59.4515 394.76 61.3936 395.566 63.4198 395.57H333.76C335.786 395.566 337.728 394.76 339.161 393.327C340.594 391.894 341.4 389.952 341.404 387.926V7.924C341.4 5.89782 340.594 3.95569 339.161 2.52296C337.728 1.09024 335.786 0.283702 333.76 0.280001H63.4198Z" fill="#EBEBEB"/>
<path d="M636.58 395.92H366.24C364.12 395.92 362.087 395.078 360.587 393.579C359.088 392.079 358.246 390.046 358.246 387.926V7.924C358.265 5.81601 359.115 3.80065 360.612 2.31659C362.109 0.832527 364.132 -8.08163e-05 366.24 5.88357e-09H636.58C638.7 5.88359e-09 640.734 0.842223 642.233 2.34139C643.732 3.84055 644.574 5.87386 644.574 7.994V387.926C644.574 390.046 643.732 392.079 642.233 393.579C640.734 395.078 638.7 395.92 636.58 395.92ZM366.24 0.280001C364.214 0.283702 362.272 1.09024 360.839 2.52296C359.406 3.95569 358.6 5.89782 358.596 7.924V387.926C358.6 389.952 359.406 391.894 360.839 393.327C362.272 394.76 364.214 395.566 366.24 395.57H636.58C638.606 395.566 640.548 394.76 641.981 393.327C643.414 391.894 644.22 389.952 644.224 387.926V7.924C644.22 5.89782 643.414 3.95569 641.981 2.52296C640.548 1.09024 638.606 0.283702 636.58 0.280001H366.24Z" fill="#EBEBEB"/>
<path d="M700 458.36H0V458.71H700V458.36Z" fill="#EBEBEB"/>
<path d="M127.232 282.982L105.84 276.374C105.531 276.262 105.271 276.044 105.106 275.759C104.941 275.474 104.882 275.141 104.939 274.816C104.996 274.492 105.165 274.198 105.417 273.987C105.669 273.775 105.987 273.658 106.316 273.658L130.984 274.96C125.16 264.838 121.716 258.51 117.796 250.586C117.666 250.286 117.645 249.95 117.736 249.636C117.828 249.322 118.026 249.05 118.297 248.867C118.568 248.684 118.895 248.602 119.22 248.635C119.545 248.667 119.849 248.813 120.078 249.046C125.342 254.968 129.752 259.77 136.878 267.344C138.558 257.544 140.518 248.514 142.954 239.456C143.017 239.085 143.225 238.754 143.533 238.536C143.84 238.318 144.221 238.231 144.592 238.294C144.964 238.357 145.295 238.565 145.513 238.872C145.73 239.18 145.817 239.561 145.754 239.932C145.1 247.23 144.862 254.559 145.04 261.884L145.712 262.122C151.63 255.365 157.841 248.873 164.346 242.648C164.608 242.443 164.934 242.338 165.267 242.351C165.599 242.365 165.916 242.496 166.16 242.722C166.404 242.948 166.56 243.253 166.6 243.583C166.639 243.913 166.56 244.247 166.376 244.524C160.085 252.502 154.274 260.846 148.974 269.514C157.43 266.322 165.933 263.228 174.482 260.232C174.805 260.14 175.15 260.166 175.454 260.307C175.759 260.447 176.003 260.692 176.142 260.998C176.281 261.303 176.306 261.648 176.212 261.97C176.118 262.292 175.912 262.569 175.63 262.752C166.768 267.778 158.004 272.916 149.254 278.236L171.808 285.418C172.12 285.531 172.382 285.751 172.546 286.039C172.711 286.327 172.768 286.664 172.708 286.99C172.647 287.316 172.473 287.61 172.216 287.819C171.959 288.029 171.636 288.14 171.304 288.134L148.134 286.734C152.712 292.096 155.89 295.778 159.6 299.936C159.809 300.191 159.922 300.512 159.917 300.842C159.913 301.172 159.792 301.49 159.576 301.739C159.36 301.989 159.062 302.154 158.737 302.206C158.411 302.258 158.077 302.192 157.794 302.022C153.132 298.928 149.03 296.184 143.066 292.222C143.682 296.982 144.2 300.622 144.83 304.29C144.865 304.619 144.783 304.95 144.597 305.225C144.411 305.499 144.133 305.698 143.814 305.787C143.495 305.876 143.155 305.849 142.854 305.711C142.553 305.572 142.311 305.332 142.17 305.032C140.616 301.07 139.202 297.136 137.41 291.9C130.676 324.1 132.412 355.362 138.922 387.394L130.858 385.994C126.105 354.53 127.388 322.45 134.638 291.466C130.592 295.666 127.638 298.788 124.838 301.952C124.601 302.185 124.289 302.325 123.957 302.349C123.625 302.372 123.296 302.277 123.029 302.08C122.761 301.883 122.572 301.597 122.496 301.273C122.42 300.95 122.461 300.61 122.612 300.314C124.516 297.15 126.574 293.944 129.346 289.786C122.136 291.368 117.208 292.46 111.762 293.692C111.436 293.751 111.099 293.692 110.811 293.525C110.524 293.359 110.306 293.095 110.195 292.782C110.083 292.469 110.087 292.127 110.205 291.817C110.323 291.507 110.548 291.248 110.838 291.088C115.724 288.47 120.4 286.23 127.232 282.982Z" fill="#EBEBEB"/>
<path d="M115.848 294.112L132.284 285.404C132.696 285.196 133.016 284.842 133.181 284.412C133.347 283.981 133.347 283.505 133.182 283.074C133.016 282.644 132.697 282.29 132.285 282.081C131.874 281.873 131.399 281.825 130.954 281.946L110.668 287C113.972 277.48 116.058 271.068 118.102 264.012C118.228 263.577 118.19 263.112 117.998 262.703C117.805 262.293 117.469 261.968 117.054 261.788C116.639 261.608 116.173 261.585 115.742 261.724C115.312 261.863 114.946 262.154 114.714 262.542C111.382 268.142 108.204 273.182 103.514 280.616C100.714 273.028 97.7604 265.986 94.5684 259.07C94.368 258.657 94.0222 258.333 93.5975 258.16C93.1727 257.986 92.6988 257.976 92.2668 258.13C91.8347 258.284 91.4749 258.593 91.2563 258.996C91.0377 259.4 90.9758 259.87 91.0824 260.316C92.4824 265.804 93.6444 271.334 94.5404 276.752L93.9244 277.116C88.6044 272.972 83.1631 269.001 77.6004 265.202C77.213 264.934 76.7384 264.823 76.2722 264.891C75.806 264.958 75.3829 265.201 75.0881 265.568C74.7934 265.936 74.6489 266.401 74.6839 266.871C74.7188 267.341 74.9306 267.78 75.2764 268.1C81.1378 273.467 86.7378 279.095 92.0764 284.984C84.8804 283.743 77.6704 282.557 70.4464 281.428C69.9899 281.365 69.5261 281.473 69.1447 281.731C68.7633 281.99 68.4914 282.381 68.3817 282.829C68.2719 283.277 68.3321 283.749 68.5506 284.155C68.7691 284.561 69.1303 284.871 69.5644 285.026C77.5444 287.826 85.4684 290.626 93.3644 293.608L75.8784 303.072C75.4495 303.276 75.1149 303.637 74.943 304.08C74.7712 304.522 74.7751 305.014 74.954 305.454C75.1329 305.894 75.4732 306.25 75.9053 306.447C76.3375 306.644 76.8287 306.669 77.2784 306.516L96.1084 301.742C93.3084 306.516 91.2924 310.142 89.1084 313.754C88.8695 314.144 88.7821 314.607 88.863 315.057C88.9439 315.507 89.1874 315.911 89.5471 316.193C89.9068 316.475 90.3576 316.615 90.8137 316.586C91.2698 316.557 91.6993 316.361 92.0204 316.036L102.198 306.082C102.366 308.882 102.506 311.374 102.59 313.67C102.609 314.13 102.797 314.566 103.119 314.896C103.44 315.225 103.872 315.424 104.331 315.453C104.79 315.483 105.244 315.341 105.605 315.056C105.966 314.771 106.209 314.362 106.286 313.908C106.748 311.108 107.196 308.196 107.686 304.71C120.286 335.104 124.486 366.114 124.01 398.804L131.668 395.864C130.465 364.065 123.215 332.787 110.304 303.702C113.216 305.746 115.652 307.482 117.878 309.12C118.25 309.447 118.736 309.613 119.229 309.581C119.723 309.55 120.184 309.323 120.51 308.952C120.837 308.581 121.003 308.095 120.972 307.601C120.94 307.108 120.714 306.647 120.342 306.32C118.83 304.71 117.164 303.002 115.246 301.042C120.846 301.196 125.13 301.322 129.246 301.462C129.7 301.472 130.141 301.317 130.488 301.025C130.835 300.733 131.063 300.324 131.13 299.876C131.197 299.427 131.098 298.97 130.852 298.589C130.606 298.208 130.229 297.931 129.792 297.808C125.704 296.702 121.462 295.568 115.848 294.112Z" fill="#F0F0F0"/>
<path d="M144.872 311.78L132.608 305.27C132.326 305.118 132.11 304.868 131.999 304.568C131.889 304.268 131.891 303.938 132.006 303.64C132.121 303.341 132.341 303.095 132.624 302.946C132.907 302.798 133.235 302.758 133.546 302.834L148.652 306.6C146.188 299.516 144.662 294.812 143.15 289.548C142.998 289.223 142.981 288.851 143.103 288.514C143.225 288.176 143.476 287.901 143.801 287.749C144.126 287.597 144.498 287.58 144.835 287.702C145.172 287.824 145.448 288.075 145.6 288.4C148.092 292.516 150.43 296.296 153.916 301.826C156.03 296.156 158.214 290.906 160.608 285.74C160.749 285.447 160.994 285.218 161.294 285.095C161.595 284.972 161.93 284.964 162.236 285.074C162.542 285.183 162.797 285.402 162.951 285.688C163.105 285.973 163.148 286.306 163.072 286.622C161.994 290.822 161.112 295.022 160.44 299.096L160.832 299.32C164.864 296.175 168.998 293.165 173.236 290.29C173.372 290.183 173.528 290.105 173.694 290.058C173.861 290.012 174.035 289.998 174.206 290.019C174.378 290.04 174.544 290.094 174.694 290.179C174.845 290.264 174.977 290.378 175.084 290.514C175.19 290.65 175.269 290.806 175.316 290.972C175.362 291.139 175.375 291.313 175.355 291.484C175.334 291.656 175.279 291.822 175.194 291.972C175.11 292.123 174.996 292.255 174.86 292.362C170.445 296.366 166.245 300.566 162.26 304.962C167.636 304.029 173.03 303.137 178.444 302.288C178.771 302.232 179.108 302.303 179.385 302.485C179.663 302.667 179.862 302.947 179.941 303.27C180.021 303.592 179.976 303.933 179.815 304.223C179.654 304.514 179.389 304.732 179.074 304.836C173.128 306.899 167.197 309.036 161.28 311.248L174.3 318.248C174.586 318.399 174.807 318.65 174.92 318.953C175.033 319.256 175.03 319.59 174.912 319.891C174.794 320.193 174.57 320.44 174.281 320.586C173.993 320.732 173.66 320.767 173.348 320.684L159.348 317.128C161.406 320.726 162.96 323.414 164.57 326.144C164.725 326.418 164.777 326.738 164.716 327.047C164.656 327.355 164.487 327.632 164.239 327.827C163.992 328.022 163.683 328.121 163.369 328.108C163.055 328.095 162.756 327.969 162.526 327.754L154.994 320.348C154.854 322.574 154.756 324.478 154.686 326.256C154.68 326.587 154.55 326.903 154.322 327.142C154.094 327.381 153.784 327.526 153.454 327.547C153.124 327.568 152.799 327.464 152.542 327.256C152.285 327.048 152.116 326.751 152.068 326.424C151.718 324.31 151.368 322.042 150.976 319.34C141.764 341.502 138.768 364.14 139.076 387.94L133.476 385.798C134.354 362.613 139.637 339.807 149.044 318.598C146.79 320.194 144.844 321.538 143.192 322.798C142.929 323.007 142.596 323.107 142.261 323.078C141.927 323.05 141.616 322.894 141.392 322.644C141.168 322.393 141.049 322.067 141.058 321.731C141.067 321.395 141.205 321.076 141.442 320.838C142.632 319.578 143.92 318.234 145.446 316.638L134.862 316.946C134.537 316.959 134.219 316.851 133.969 316.643C133.719 316.436 133.554 316.143 133.507 315.821C133.46 315.499 133.534 315.172 133.714 314.901C133.895 314.631 134.169 314.436 134.484 314.356C137.466 313.712 140.63 312.872 144.872 311.78Z" fill="#F5F5F5"/>
<path d="M110.307 458.122H152.055C153.462 458.125 154.816 457.59 155.841 456.627C156.867 455.664 157.485 454.346 157.571 452.942L161.995 380.926C162.191 377.748 100.171 377.748 100.395 380.926L104.819 452.942C104.905 454.341 105.519 455.655 106.539 456.617C107.558 457.58 108.905 458.117 110.307 458.122Z" fill="#F0F0F0"/>
<path d="M107.798 291.732C107.256 291.284 106.834 290.708 106.572 290.054C106.31 289.401 106.217 288.693 106.3 287.994L107.238 280.014L105.096 283.724C104.8 284.245 104.395 284.697 103.91 285.049C103.424 285.401 102.869 285.644 102.282 285.764C101.694 285.883 101.088 285.875 100.504 285.741C99.9194 285.606 99.3706 285.348 98.8944 284.984L94.6944 281.82L98.5164 287.994C99.0525 288.849 99.2626 289.869 99.1084 290.867C98.9541 291.864 98.4458 292.773 97.6764 293.426L92.7344 297.626L97.5784 296.52C98.6051 296.279 99.6849 296.434 100.603 296.953C101.521 297.471 102.211 298.316 102.534 299.32L104.2 304.416L105.264 298.998C105.38 298.424 105.614 297.881 105.951 297.403C106.289 296.925 106.723 296.523 107.225 296.222C107.727 295.922 108.287 295.729 108.868 295.658C109.449 295.586 110.038 295.637 110.598 295.806L113.86 296.758L107.798 291.732Z" fill="#9293A0"/>
<path d="M135.618 277.984C136.016 277.659 136.325 277.237 136.516 276.76C136.707 276.282 136.774 275.764 136.71 275.254L136.024 269.416L137.592 272.132C137.808 272.512 138.103 272.841 138.456 273.098C138.81 273.355 139.215 273.533 139.643 273.62C140.071 273.708 140.513 273.703 140.939 273.605C141.365 273.508 141.766 273.321 142.114 273.056L145.18 270.746L142.38 275.254C141.992 275.879 141.842 276.622 141.955 277.349C142.068 278.076 142.437 278.738 142.996 279.216L146.608 282.324L143.066 281.512C142.317 281.341 141.532 281.456 140.864 281.834C140.196 282.212 139.693 282.826 139.454 283.556L138.236 287.28L137.452 283.318C137.368 282.898 137.198 282.5 136.952 282.15C136.706 281.799 136.391 281.503 136.025 281.281C135.659 281.058 135.251 280.914 134.827 280.858C134.402 280.801 133.971 280.833 133.56 280.952L131.18 281.652L135.618 277.984Z" fill="#F5F5F5"/>
<path d="M152.126 311.402C152.408 311.163 152.628 310.857 152.765 310.513C152.901 310.169 152.951 309.796 152.91 309.428L152.42 305.228L153.54 307.174C153.696 307.445 153.909 307.68 154.164 307.863C154.418 308.046 154.708 308.173 155.015 308.235C155.322 308.297 155.639 308.293 155.945 308.224C156.25 308.154 156.538 308.021 156.788 307.832L158.986 306.166L156.984 309.4C156.717 309.844 156.614 310.367 156.693 310.879C156.773 311.39 157.029 311.858 157.418 312.2L160.008 314.426L157.474 313.838C156.943 313.712 156.386 313.785 155.906 314.043C155.426 314.301 155.057 314.726 154.87 315.238L154.002 317.912L153.442 315.112C153.382 314.81 153.26 314.523 153.084 314.271C152.907 314.018 152.68 313.805 152.416 313.646C152.153 313.486 151.859 313.384 151.553 313.345C151.247 313.305 150.937 313.33 150.642 313.418L148.934 313.922L152.126 311.402Z" fill="#9293A0"/>
<path d="M538.498 112.924H501.86C500.839 112.924 500.012 113.751 500.012 114.772V121.898C500.012 122.919 500.839 123.746 501.86 123.746H538.498C539.518 123.746 540.346 122.919 540.346 121.898V114.772C540.346 113.751 539.518 112.924 538.498 112.924Z" fill="#F5F5F5"/>
<path d="M526.177 126.336H489.539C488.519 126.336 487.691 127.163 487.691 128.184V135.31C487.691 136.331 488.519 137.158 489.539 137.158H526.177C527.198 137.158 528.025 136.331 528.025 135.31V128.184C528.025 127.163 527.198 126.336 526.177 126.336Z" fill="#F5F5F5"/>
<path d="M568.384 126.336H531.746C530.726 126.336 529.898 127.163 529.898 128.184V135.31C529.898 136.331 530.726 137.158 531.746 137.158H568.384C569.405 137.158 570.232 136.331 570.232 135.31V128.184C570.232 127.163 569.405 126.336 568.384 126.336Z" fill="#F0F0F0"/>
<path d="M587.971 26.782H548.883C547.863 26.782 547.035 27.6094 547.035 28.63V36.414C547.035 37.4346 547.863 38.262 548.883 38.262H587.971C588.992 38.262 589.819 37.4346 589.819 36.414V28.63C589.819 27.6094 588.992 26.782 587.971 26.782Z" fill="#F5F5F5"/>
<path d="M587.971 55.2581H548.883C547.863 55.2581 547.035 56.0854 547.035 57.1061V64.8901C547.035 65.9107 547.863 66.7381 548.883 66.7381H587.971C588.992 66.7381 589.819 65.9107 589.819 64.8901V57.1061C589.819 56.0854 588.992 55.2581 587.971 55.2581Z" fill="#F5F5F5"/>
<path d="M574.909 41.006H535.821C534.8 41.006 533.973 41.8334 533.973 42.854V50.638C533.973 51.6586 534.8 52.486 535.821 52.486H574.909C575.929 52.486 576.757 51.6586 576.757 50.638V42.854C576.757 41.8334 575.929 41.006 574.909 41.006Z" fill="#F5F5F5"/>
<path d="M619.682 41.006H580.594C579.573 41.006 578.746 41.8334 578.746 42.854V50.638C578.746 51.6586 579.573 52.486 580.594 52.486H619.682C620.703 52.486 621.53 51.6586 621.53 50.638V42.854C621.53 41.8334 620.703 41.006 619.682 41.006Z" fill="#F0F0F0"/>
<path d="M355.599 375.48L624.469 375.48V367.752L355.599 367.752V375.48Z" fill="#F5F5F5"/>
<path d="M622.467 375.48H682.695V367.752H622.467V375.48Z" fill="#EBEBEB"/>
<path d="M411.546 394.268V375.48H399.016L411.546 394.268Z" fill="#E0E0E0"/>
<path d="M405.284 394.268L392.754 375.48H399.012L411.542 394.268H405.284Z" fill="#FAFAFA"/>
<path d="M672.882 394.268V375.48H660.352L672.882 394.268Z" fill="#E0E0E0"/>
<path d="M666.61 394.268L654.094 375.48H660.352L672.882 394.268H666.61Z" fill="#FAFAFA"/>
<path d="M639.664 368.802H646.748C647.502 368.803 648.249 368.651 648.944 368.355C649.638 368.06 650.266 367.627 650.789 367.083C651.312 366.539 651.72 365.895 651.988 365.19C652.255 364.484 652.378 363.732 652.348 362.978L651.452 336.294H634.932L634.036 362.978C634.005 363.734 634.129 364.489 634.398 365.196C634.668 365.904 635.078 366.549 635.604 367.094C636.13 367.638 636.761 368.07 637.459 368.364C638.157 368.657 638.907 368.806 639.664 368.802Z" fill="#F0F0F0"/>
<path d="M609.619 351.902C615.753 345.768 615.753 335.822 609.619 329.687C603.484 323.553 593.538 323.553 587.404 329.687C581.27 335.822 581.27 345.768 587.404 351.902C593.538 358.036 603.484 358.036 609.619 351.902Z" fill="#F0F0F0"/>
<path d="M597.418 368.564H599.602V358.162H598.51C596.19 358.228 593.88 357.828 591.717 356.985C589.554 356.143 587.582 354.875 585.917 353.258C584.253 351.64 582.93 349.704 582.026 347.566C581.123 345.428 580.657 343.13 580.657 340.809C580.657 338.488 581.123 336.19 582.026 334.052C582.93 331.914 584.253 329.979 585.917 328.361C587.582 326.743 589.554 325.475 591.717 324.633C593.88 323.79 596.19 323.39 598.51 323.456V321.258C593.589 321.513 588.944 323.613 585.502 327.139C582.059 330.665 580.071 335.358 579.933 340.284C579.796 345.21 581.519 350.007 584.759 353.72C587.999 357.432 592.519 359.788 597.418 360.318V368.564Z" fill="#EBEBEB"/>
<path d="M589.286 368.802H607.962C607.962 367.688 607.519 366.62 606.732 365.832C605.944 365.045 604.876 364.602 603.762 364.602H593.458C592.344 364.602 591.276 365.045 590.488 365.832C589.7 366.62 589.258 367.688 589.258 368.802H589.286Z" fill="#EBEBEB"/>
<path d="M640.725 368.802L625.969 354.046L611.199 368.802H640.725Z" fill="#F5F5F5"/>
<path d="M625.969 354.046L640.725 368.802H625.969V354.046Z" fill="#9293A0"/>
<path d="M551.083 349.496C551.153 350.896 551.195 352.016 551.195 352.758C551.195 355.813 550.529 358.831 549.243 361.602C547.956 364.374 546.081 366.831 543.747 368.802H517.805C515.479 366.834 513.61 364.383 512.326 361.62C511.042 358.856 510.375 355.847 510.371 352.8C510.371 352.058 510.371 350.938 510.483 349.538L551.083 349.496Z" fill="#F5F5F5"/>
<path d="M547.496 360.99C547.496 362.478 547.82 363.947 548.446 365.297C549.072 366.646 549.986 367.842 551.122 368.802H563.722C565.17 367.569 566.25 365.961 566.844 364.154C567.094 364.199 567.347 364.223 567.6 364.224C570.134 364.224 572.962 362.208 572.962 359.52C572.962 356.832 571.338 354.816 568.916 354.816C568.355 354.821 567.798 354.911 567.264 355.082V354.9C567.257 354.249 566.992 353.627 566.528 353.171C566.063 352.714 565.437 352.46 564.786 352.464H550.016C549.69 352.457 549.366 352.514 549.062 352.633C548.759 352.751 548.482 352.929 548.247 353.156C548.013 353.382 547.826 353.653 547.697 353.953C547.568 354.252 547.5 354.574 547.496 354.9C547.496 357.714 547.496 360.01 547.496 360.99ZM567.236 362.628C567.337 362.088 567.388 361.54 567.39 360.99C567.39 360.234 567.39 358.708 567.39 356.79C567.899 356.553 568.452 356.424 569.014 356.412C571.31 356.412 571.492 358.806 571.492 359.548C571.492 361.284 569.42 362.684 567.698 362.684L567.236 362.628Z" fill="#EBEBEB"/>
<path d="M430.511 368.802L432.569 345.156H402.595L400.523 368.802H430.511Z" fill="#F0F0F0"/>
<path d="M430.516 368.802L432.574 345.156H434.198L432.126 368.802H430.516Z" fill="#E0E0E0"/>
<path d="M427.659 366.394L429.311 347.578H405.441L403.789 366.394H427.659Z" fill="#FAFAFA"/>
<path d="M425.841 364.84L427.213 349.118H407.277L405.891 364.84H425.841Z" fill="#EBEBEB"/>
<path d="M464.309 368.802H434.195L437.527 330.61H467.655L464.309 368.802Z" fill="#F0F0F0"/>
<path d="M464.309 368.802H465.751L469.097 330.61H467.655L464.309 368.802Z" fill="#E0E0E0"/>
<path d="M461.58 364.91H437.598L440.258 334.502H464.24L461.58 364.91Z" fill="#E0E0E0"/>
<path d="M459.831 362.404H439.797L442.023 337.008H462.057L459.831 362.404Z" fill="#FAFAFA"/>
<path d="M445.362 350.783L447.332 352.753C449.071 354.492 451.89 354.492 453.629 352.753L455.598 350.783C457.337 349.044 457.337 346.226 455.598 344.487L453.628 342.517C451.89 340.778 449.071 340.778 447.332 342.517L445.362 344.487C443.624 346.226 443.624 349.044 445.362 350.783Z" fill="#EBEBEB"/>
<path d="M444.394 358.092L445.364 359.062C447.102 360.8 449.921 360.8 451.66 359.062L452.63 358.092C454.369 356.353 454.369 353.534 452.63 351.795L451.66 350.825C449.921 349.087 447.102 349.087 445.364 350.825L444.394 351.795C442.655 353.534 442.655 356.353 444.394 358.092Z" fill="#9293A0"/>
<path d="M97.1453 96.236H139.929C140.95 96.236 141.777 95.4086 141.777 94.388V85.61C141.777 84.5893 140.95 83.762 139.929 83.762H97.1453C96.1247 83.762 95.2973 84.5893 95.2973 85.61V94.388C95.2973 95.4086 96.1247 96.236 97.1453 96.236Z" fill="#F5F5F5"/>
<path d="M118.845 80.78H161.629C162.649 80.78 163.477 79.9527 163.477 78.932V70.154C163.477 69.1334 162.649 68.306 161.629 68.306H118.845C117.824 68.306 116.997 69.1334 116.997 70.154V78.932C116.997 79.9527 117.824 80.78 118.845 80.78Z" fill="#F5F5F5"/>
<path d="M70.2118 80.78H112.996C114.016 80.78 114.844 79.9527 114.844 78.932V70.154C114.844 69.1334 114.016 68.306 112.996 68.306H70.2118C69.1911 68.306 68.3638 69.1334 68.3638 70.154V78.932C68.3638 79.9527 69.1911 80.78 70.2118 80.78Z" fill="#F0F0F0"/>
<path d="M549.834 153.588H467.934C453.529 153.588 441.852 165.265 441.852 179.67V401.962C441.852 416.367 453.529 428.044 467.934 428.044H549.834C564.238 428.044 575.916 416.367 575.916 401.962V179.67C575.916 165.265 564.238 153.588 549.834 153.588Z" fill="url(#paint0_linear_297_8323)"/>
<path opacity="0.3" d="M550.128 153.588H467.64C453.397 153.588 441.852 165.134 441.852 179.376V402.256C441.852 416.498 453.397 428.044 467.64 428.044H550.128C564.37 428.044 575.916 416.498 575.916 402.256V179.376C575.916 165.134 564.37 153.588 550.128 153.588Z" fill="black"/>
<path d="M575.916 167.056V221.502H441.852V167.056C441.852 163.484 443.271 160.059 445.796 157.533C448.322 155.007 451.748 153.588 455.32 153.588H562.448C566.02 153.588 569.445 155.007 571.971 157.533C574.497 160.059 575.916 163.484 575.916 167.056Z" fill="url(#paint1_linear_297_8323)"/>
<path d="M479.778 182.89C479.778 185.578 477.79 187.23 474.584 187.23H471.784V190.702H469.516V178.522H474.598C477.79 178.564 479.778 180.202 479.778 182.89ZM477.496 182.89C477.496 181.364 476.474 180.468 474.486 180.468H471.798V185.312H474.444C476.474 185.312 477.496 184.43 477.496 182.89Z" fill="white"/>
<path d="M487.196 181.35V183.422C487.029 183.404 486.86 183.404 486.692 183.422C486.322 183.395 485.951 183.45 485.604 183.583C485.257 183.716 484.944 183.923 484.686 184.19C484.428 184.457 484.232 184.777 484.112 185.129C483.992 185.48 483.95 185.853 483.99 186.222V190.702H481.82V181.406H483.892V182.806C484.268 182.296 484.77 181.893 485.35 181.638C485.93 181.382 486.566 181.283 487.196 181.35Z" fill="white"/>
<path d="M497.587 186.796H490.293C490.432 187.473 490.816 188.075 491.372 188.486C491.927 188.897 492.615 189.088 493.303 189.022C493.772 189.039 494.24 188.958 494.676 188.784C495.112 188.611 495.508 188.349 495.837 188.014L496.999 189.414C496.294 190.112 495.405 190.595 494.435 190.805C493.465 191.016 492.456 190.946 491.525 190.604C490.593 190.262 489.779 189.661 489.176 188.873C488.574 188.084 488.209 187.141 488.123 186.152C488.104 185.519 488.215 184.888 488.45 184.3C488.685 183.711 489.039 183.177 489.489 182.732C489.94 182.286 490.478 181.939 491.069 181.711C491.66 181.483 492.292 181.379 492.925 181.406C493.558 181.382 494.189 181.49 494.777 181.724C495.366 181.958 495.899 182.312 496.342 182.765C496.785 183.217 497.128 183.757 497.35 184.35C497.572 184.943 497.667 185.576 497.629 186.208C497.629 186.32 497.601 186.586 497.587 186.796ZM490.279 185.396H495.599C495.532 184.754 495.222 184.162 494.733 183.74C494.244 183.319 493.612 183.1 492.967 183.128C492.322 183.094 491.687 183.304 491.189 183.717C490.691 184.129 490.366 184.713 490.279 185.354V185.396Z" fill="white"/>
<path d="M515.269 185.424V190.702H513.085V185.648C513.085 183.996 512.315 183.198 510.999 183.198C509.683 183.198 508.577 184.136 508.577 185.998V190.702H506.407V185.648C506.407 183.996 505.637 183.198 504.307 183.198C502.977 183.198 501.885 184.136 501.885 185.998V190.702H499.715V181.406H501.787V182.596C502.168 182.168 502.639 181.83 503.167 181.607C503.695 181.384 504.266 181.282 504.839 181.308C505.449 181.267 506.059 181.388 506.607 181.659C507.155 181.929 507.622 182.339 507.961 182.848C508.388 182.345 508.923 181.945 509.527 181.678C510.131 181.411 510.787 181.285 511.447 181.308C513.701 181.35 515.269 182.61 515.269 185.424Z" fill="white"/>
<path d="M517.746 178.606C517.771 178.252 517.929 177.921 518.189 177.679C518.449 177.437 518.791 177.303 519.146 177.304C519.322 177.291 519.498 177.313 519.665 177.37C519.831 177.427 519.985 177.517 520.116 177.635C520.247 177.752 520.352 177.896 520.426 178.055C520.5 178.215 520.541 178.388 520.546 178.564C520.546 178.935 520.399 179.292 520.136 179.554C519.873 179.817 519.517 179.964 519.146 179.964C518.775 179.964 518.419 179.817 518.156 179.554C517.894 179.292 517.746 178.935 517.746 178.564V178.606ZM518.054 181.406H520.224V190.702H517.998L518.054 181.406Z" fill="white"/>
<path d="M532.08 181.448V190.702H530.008V189.526C529.635 189.95 529.174 190.287 528.656 190.512C528.138 190.737 527.577 190.845 527.012 190.828C526.464 190.88 525.91 190.809 525.393 190.619C524.876 190.429 524.408 190.125 524.023 189.73C523.639 189.335 523.348 188.859 523.173 188.337C522.997 187.814 522.941 187.259 523.008 186.712V181.406H525.178V186.502C525.178 188.196 525.99 188.994 527.362 188.994C527.723 189.01 528.082 188.947 528.415 188.808C528.748 188.669 529.046 188.458 529.288 188.191C529.53 187.923 529.71 187.605 529.815 187.26C529.92 186.915 529.948 186.551 529.896 186.194V181.49L532.08 181.448Z" fill="white"/>
<path d="M550.478 185.424V190.702H548.307V185.648C548.307 183.996 547.537 183.198 546.221 183.198C544.905 183.198 543.799 184.136 543.799 185.998V190.702H541.615V185.648C541.615 183.996 540.859 183.198 539.529 183.198C538.199 183.198 537.107 184.136 537.107 185.998V190.702H534.938V181.406H537.009V182.596C537.39 182.168 537.862 181.83 538.39 181.607C538.918 181.384 539.489 181.282 540.062 181.308C540.671 181.267 541.281 181.388 541.829 181.659C542.378 181.929 542.845 182.339 543.183 182.848C543.61 182.345 544.146 181.945 544.75 181.678C545.353 181.411 546.01 181.285 546.67 181.308C548.924 181.35 550.478 182.61 550.478 185.424Z" fill="white"/>
<path d="M536.869 384.868H480.897C473.289 384.868 467.121 391.036 467.121 398.644V399.694C467.121 407.302 473.289 413.47 480.897 413.47H536.869C544.477 413.47 550.645 407.302 550.645 399.694V398.644C550.645 391.036 544.477 384.868 536.869 384.868Z" fill="url(#paint2_linear_297_8323)"/>
<path d="M487.197 401.36C487.197 403.964 485.111 405.7 481.849 405.966L481.415 408.122H479.455L479.889 405.966C478.285 405.868 476.736 405.351 475.395 404.468L476.697 402.046C477.786 402.826 479.06 403.308 480.393 403.446L481.065 400.142C479.245 399.596 477.243 398.868 477.243 396.502C477.243 393.898 479.385 392.134 482.703 391.91L483.137 389.754H485.097L484.663 391.924C485.93 392.024 487.16 392.407 488.261 393.044L487.071 395.466C486.195 394.898 485.197 394.548 484.159 394.444L483.473 397.888C485.279 398.406 487.197 399.106 487.197 401.36ZM481.597 397.328L482.157 394.528C481.051 394.738 480.421 395.34 480.407 396.096C480.393 396.852 480.925 397.034 481.597 397.328ZM484.019 401.864C484.019 401.304 483.571 400.94 482.885 400.688L482.353 403.376C483.445 403.152 484.047 402.606 484.047 401.864H484.019Z" fill="white"/>
<path d="M542.034 326.348H472.832V329.148H542.034V326.348Z" fill="url(#paint3_linear_297_8323)"/>
<path d="M542.034 280.372H472.832V283.172H542.034V280.372Z" fill="url(#paint4_linear_297_8323)"/>
<path d="M542.034 236.062H472.832V238.862H542.034V236.062Z" fill="url(#paint5_linear_297_8323)"/>
<path d="M515.396 268.011C520.098 263.309 520.098 255.686 515.396 250.984C510.694 246.282 503.071 246.282 498.369 250.984C493.667 255.686 493.667 263.309 498.369 268.011C503.071 272.713 510.694 272.713 515.396 268.011Z" fill="url(#paint6_linear_297_8323)"/>
<path d="M515.493 256.894L508.577 263.824L505.343 267.058L502.109 263.824L505.343 260.59L512.259 253.66L515.493 256.894Z" fill="white"/>
<path d="M508.574 263.824L505.34 267.058L498.48 260.198L501.714 256.964L505.34 260.59L508.574 263.824Z" fill="white"/>
<path d="M506.88 315.96C513.529 315.96 518.92 310.57 518.92 303.92C518.92 297.271 513.529 291.88 506.88 291.88C500.23 291.88 494.84 297.271 494.84 303.92C494.84 310.57 500.23 315.96 506.88 315.96Z" fill="url(#paint7_linear_297_8323)"/>
<path d="M515.493 301.316L508.577 308.246L505.343 311.48L502.109 308.246L505.343 305.012L512.259 298.082L515.493 301.316Z" fill="white"/>
<path d="M508.574 308.246L505.34 311.48L498.48 304.62L501.714 301.386L505.34 305.012L508.574 308.246Z" fill="white"/>
<path d="M506.88 363.602C513.529 363.602 518.92 358.212 518.92 351.562C518.92 344.913 513.529 339.522 506.88 339.522C500.23 339.522 494.84 344.913 494.84 351.562C494.84 358.212 500.23 363.602 506.88 363.602Z" fill="url(#paint8_linear_297_8323)"/>
<path d="M515.493 348.958L508.577 355.888L505.343 359.122L502.109 355.888L505.343 352.654L512.259 345.724L515.493 348.958Z" fill="white"/>
<path d="M508.574 355.888L505.34 359.122L498.48 352.262L501.714 349.028L505.34 352.654L508.574 355.888Z" fill="white"/>
<path d="M491.103 202.21L493.357 205.808L497.473 206.83L494.743 210.092L495.037 214.334L491.103 212.738L487.155 214.334L487.449 210.092L484.719 206.83L488.849 205.808L491.103 202.21Z" fill="white"/>
<path d="M506.882 202.21L509.136 205.808L513.266 206.83L510.536 210.092L510.83 214.334L506.882 212.738L502.948 214.334L503.242 210.092L500.512 206.83L504.628 205.808L506.882 202.21Z" fill="white"/>
<path d="M522.673 202.21L524.913 205.808L529.043 206.83L526.313 210.092L526.607 214.334L522.673 212.738L518.725 214.334L519.019 210.092L516.289 206.83L520.419 205.808L522.673 202.21Z" fill="white"/>
<path d="M392.326 137.964H310.426C296.021 137.964 284.344 149.641 284.344 164.046V386.338C284.344 400.743 296.021 412.42 310.426 412.42H392.326C406.73 412.42 418.408 400.743 418.408 386.338V164.046C418.408 149.641 406.73 137.964 392.326 137.964Z" fill="url(#paint9_linear_297_8323)"/>
<path opacity="0.5" d="M391.458 137.964H311.294C304.146 137.964 297.291 140.803 292.237 145.858C287.183 150.912 284.344 157.767 284.344 164.914V385.47C284.344 389.01 285.041 392.516 286.397 395.787C287.752 399.057 289.738 402.029 292.242 404.532C294.746 407.034 297.719 409.019 300.99 410.373C304.261 411.726 307.767 412.422 311.308 412.42H391.458C394.998 412.422 398.504 411.726 401.775 410.373C405.047 409.019 408.019 407.034 410.523 404.532C413.027 402.029 415.014 399.057 416.369 395.787C417.724 392.516 418.422 389.01 418.422 385.47V164.914C418.422 161.374 417.724 157.868 416.369 154.598C415.014 151.327 413.027 148.355 410.523 145.853C408.019 143.35 405.047 141.365 401.775 140.012C398.504 138.658 394.998 137.962 391.458 137.964Z" fill="white"/>
<path d="M418.422 151.502V205.934H284.344V151.502C284.344 147.93 285.763 144.505 288.288 141.979C290.814 139.453 294.24 138.034 297.812 138.034H404.94C408.513 138.034 411.94 139.453 414.468 141.978C416.996 144.503 418.418 147.929 418.422 151.502Z" fill="url(#paint10_linear_297_8323)"/>
<path d="M311.992 173.902L312.776 172.152C313.928 173.043 315.338 173.534 316.794 173.552C318.684 173.552 319.496 172.88 319.496 171.97C319.496 169.352 312.244 171.074 312.244 166.538C312.244 164.578 313.812 162.898 317.158 162.898C318.584 162.881 319.988 163.254 321.218 163.976L320.504 165.74C319.486 165.135 318.328 164.807 317.144 164.788C315.254 164.788 314.498 165.516 314.498 166.44C314.498 169.03 321.722 167.336 321.722 171.816C321.722 173.762 320.14 175.442 316.794 175.442C315.068 175.472 313.38 174.93 311.992 173.902Z" fill="white"/>
<path d="M329.355 174.616C328.742 175.048 328.005 175.269 327.255 175.246C326.825 175.313 326.385 175.279 325.971 175.146C325.556 175.013 325.178 174.785 324.867 174.481C324.556 174.177 324.32 173.804 324.178 173.392C324.036 172.981 323.992 172.542 324.049 172.11V167.644H322.523V165.894H324.049V163.766H326.205V165.894H328.697V167.644H326.205V172.054C326.205 172.964 326.653 173.454 327.493 173.454C327.93 173.462 328.357 173.33 328.711 173.076L329.355 174.616Z" fill="white"/>
<path d="M338.929 169.702V175.148H336.871V174.014C336.53 174.455 336.082 174.802 335.57 175.022C335.059 175.242 334.499 175.329 333.945 175.274C331.817 175.274 330.473 174.112 330.473 172.474C330.473 170.836 331.523 169.674 334.337 169.674H336.745V169.534C336.745 168.274 335.975 167.518 334.435 167.518C333.425 167.512 332.442 167.837 331.635 168.442L330.753 166.902C331.906 166.106 333.286 165.703 334.687 165.754C337.403 165.726 338.929 167 338.929 169.702ZM336.745 172.25V171.102H334.505C333.021 171.102 332.615 171.648 332.615 172.334C332.615 173.02 333.287 173.622 334.393 173.622C334.881 173.659 335.369 173.545 335.79 173.294C336.211 173.044 336.544 172.669 336.745 172.222V172.25Z" fill="white"/>
<path d="M350.871 169.8V175.12H348.687V170.08C348.687 168.428 347.875 167.616 346.475 167.616C346.111 167.596 345.748 167.657 345.41 167.794C345.073 167.931 344.77 168.14 344.522 168.408C344.275 168.675 344.09 168.994 343.979 169.341C343.869 169.688 343.837 170.055 343.885 170.416V175.106H341.715V165.824H343.787V167.028C344.189 166.588 344.684 166.243 345.236 166.017C345.788 165.792 346.384 165.693 346.979 165.726C347.516 165.685 348.056 165.763 348.56 165.956C349.063 166.149 349.518 166.451 349.89 166.841C350.263 167.231 350.544 167.698 350.713 168.21C350.883 168.722 350.937 169.265 350.871 169.8Z" fill="white"/>
<path d="M362.828 162.212V175.12H360.742V173.902C360.362 174.34 359.887 174.686 359.354 174.914C358.82 175.142 358.242 175.246 357.662 175.218C356.4 175.218 355.189 174.717 354.297 173.824C353.404 172.931 352.902 171.721 352.902 170.458C352.902 169.196 353.404 167.985 354.297 167.092C355.189 166.2 356.4 165.698 357.662 165.698C358.223 165.672 358.782 165.771 359.3 165.986C359.818 166.201 360.282 166.529 360.658 166.944V162.184L362.828 162.212ZM360.686 170.472C360.664 169.924 360.482 169.394 360.161 168.948C359.84 168.503 359.396 168.161 358.883 167.966C358.369 167.772 357.81 167.732 357.275 167.852C356.739 167.973 356.251 168.248 355.87 168.643C355.49 169.039 355.234 169.538 355.135 170.078C355.035 170.618 355.097 171.175 355.312 171.68C355.527 172.185 355.885 172.616 356.343 172.919C356.801 173.222 357.337 173.384 357.886 173.384C358.267 173.397 358.646 173.329 358.999 173.186C359.352 173.043 359.671 172.827 359.935 172.552C360.199 172.277 360.403 171.95 360.532 171.592C360.661 171.234 360.714 170.852 360.686 170.472Z" fill="white"/>
<path d="M373.469 169.702V175.148H371.411V174.014C371.072 174.457 370.625 174.805 370.113 175.026C369.6 175.246 369.04 175.332 368.485 175.274C366.371 175.274 365.027 174.112 365.027 172.474C365.027 170.836 366.063 169.674 368.891 169.674H371.299V169.534C371.299 168.274 370.529 167.518 368.975 167.518C367.966 167.509 366.981 167.834 366.175 168.442L365.307 166.902C366.461 166.106 367.841 165.703 369.241 165.754C371.915 165.726 373.469 167 373.469 169.702ZM371.299 172.25V171.102H369.045C367.561 171.102 367.169 171.648 367.169 172.334C367.169 173.02 367.827 173.622 368.947 173.622C369.436 173.659 369.924 173.545 370.345 173.294C370.766 173.044 371.099 172.669 371.299 172.222V172.25Z" fill="white"/>
<path d="M381.63 165.726V167.798C381.462 167.779 381.293 167.779 381.126 167.798C380.749 167.77 380.371 167.826 380.018 167.962C379.666 168.099 379.349 168.313 379.09 168.588C378.83 168.863 378.636 169.193 378.521 169.553C378.406 169.913 378.373 170.294 378.424 170.668V175.176H376.254V165.824H378.326V167.224C378.7 166.71 379.202 166.303 379.781 166.04C380.36 165.777 380.997 165.669 381.63 165.726Z" fill="white"/>
<path d="M392.492 162.212V175.12H390.406V173.902C390.026 174.34 389.551 174.686 389.018 174.914C388.484 175.142 387.906 175.246 387.326 175.218C386.064 175.218 384.853 174.717 383.961 173.824C383.068 172.931 382.566 171.721 382.566 170.458C382.566 169.196 383.068 167.985 383.961 167.092C384.853 166.2 386.064 165.698 387.326 165.698C387.887 165.671 388.446 165.769 388.964 165.985C389.482 166.2 389.946 166.528 390.322 166.944V162.184L392.492 162.212ZM390.35 170.472C390.328 169.924 390.146 169.394 389.825 168.948C389.504 168.503 389.06 168.161 388.547 167.966C388.033 167.772 387.474 167.732 386.939 167.852C386.403 167.973 385.915 168.248 385.534 168.643C385.154 169.039 384.898 169.538 384.799 170.078C384.7 170.618 384.761 171.175 384.976 171.68C385.191 172.185 385.549 172.616 386.007 172.919C386.465 173.222 387.001 173.384 387.55 173.384C387.932 173.399 388.312 173.333 388.666 173.191C389.02 173.048 389.34 172.832 389.604 172.557C389.869 172.282 390.072 171.954 390.201 171.594C390.329 171.235 390.38 170.853 390.35 170.472Z" fill="white"/>
<path d="M380.494 369.244H324.522C316.914 369.244 310.746 375.412 310.746 383.02V384.07C310.746 391.678 316.914 397.846 324.522 397.846H380.494C388.102 397.846 394.27 391.678 394.27 384.07V383.02C394.27 375.412 388.102 369.244 380.494 369.244Z" fill="url(#paint11_linear_297_8323)"/>
<path d="M385.675 310.724H316.473V313.524H385.675V310.724Z" fill="url(#paint12_linear_297_8323)"/>
<path d="M385.675 264.748H316.473V267.548H385.675V264.748Z" fill="url(#paint13_linear_297_8323)"/>
<path d="M385.675 220.438H316.473V223.238H385.675V220.438Z" fill="url(#paint14_linear_297_8323)"/>
<path d="M361.733 291.061C363.261 284.59 359.252 278.105 352.781 276.577C346.309 275.05 339.824 279.058 338.297 285.53C336.769 292.001 340.778 298.486 347.249 300.014C353.721 301.541 360.206 297.533 361.733 291.061Z" fill="url(#paint15_linear_297_8323)"/>
<path d="M358.64 285.706L351.71 292.622L348.476 295.856L345.242 292.622L348.476 289.402L355.406 282.472L358.64 285.706Z" fill="white"/>
<path d="M351.713 292.622L348.479 295.856L341.633 288.996L344.853 285.776L348.479 289.402L351.713 292.622Z" fill="white"/>
<path d="M355.678 347.062C361.822 344.518 364.739 337.475 362.194 331.331C359.65 325.188 352.607 322.271 346.463 324.815C340.32 327.36 337.403 334.403 339.947 340.546C342.492 346.69 349.535 349.607 355.678 347.062Z" fill="url(#paint16_linear_297_8323)"/>
<path d="M359.691 333.334L352.761 340.264L349.527 343.498L346.293 340.264L349.527 337.03L356.457 330.1L359.691 333.334Z" fill="white"/>
<path d="M352.764 340.264L349.53 343.498L342.684 336.638L345.904 333.404L349.53 337.03L352.764 340.264Z" fill="white"/>
<path d="M350.019 255.914C356.599 255.914 361.933 250.58 361.933 244C361.933 237.42 356.599 232.086 350.019 232.086C343.44 232.086 338.105 237.42 338.105 244C338.105 250.58 343.44 255.914 350.019 255.914Z" fill="#263238"/>
<path opacity="0.5" d="M350.019 255.914C356.599 255.914 361.933 250.58 361.933 244C361.933 237.42 356.599 232.086 350.019 232.086C343.44 232.086 338.105 237.42 338.105 244C338.105 250.58 343.44 255.914 350.019 255.914Z" fill="white"/>
<path d="M353.555 237.263L343.289 247.529L346.487 250.727L356.752 240.461L353.555 237.263Z" fill="white"/>
<path d="M343.297 240.465L353.562 250.731L356.76 247.533L346.494 237.267L343.297 240.465Z" fill="white"/>
<path d="M405.023 153.028V184.976L411.771 178.242V153.028H405.023Z" fill="url(#paint17_linear_297_8323)"/>
<path d="M418.507 153.028V184.976L411.773 178.242V153.028H418.507Z" fill="url(#paint18_linear_297_8323)"/>
<g opacity="0.3">
<path d="M418.519 153.014V184.99L411.771 178.228L405.023 184.99V153.014H418.519Z" fill="black"/>
</g>
<path d="M415.062 121.08C415.522 121.957 416.306 122.619 417.248 122.925C418.19 123.231 419.214 123.157 420.102 122.718C420.726 122.414 421.421 122.285 422.113 122.345C422.804 122.406 423.467 122.654 424.028 123.063C424.589 123.472 425.029 124.026 425.299 124.666C425.569 125.305 425.66 126.007 425.562 126.694C425.43 127.674 425.681 128.668 426.262 129.468C426.844 130.268 427.711 130.814 428.684 130.992C429.368 131.109 430.007 131.411 430.533 131.865C431.058 132.319 431.449 132.908 431.664 133.568C431.879 134.228 431.909 134.934 431.751 135.611C431.594 136.287 431.254 136.907 430.77 137.404C430.083 138.116 429.699 139.068 429.699 140.057C429.699 141.047 430.083 141.998 430.77 142.71C431.253 143.209 431.592 143.83 431.749 144.507C431.906 145.184 431.876 145.89 431.661 146.551C431.447 147.212 431.056 147.802 430.531 148.257C430.007 148.713 429.368 149.017 428.684 149.136C427.717 149.321 426.858 149.87 426.285 150.67C425.711 151.47 425.468 152.459 425.604 153.434C425.699 154.12 425.606 154.82 425.335 155.457C425.063 156.095 424.623 156.647 424.063 157.054C423.502 157.461 422.841 157.708 422.15 157.768C421.46 157.828 420.766 157.7 420.144 157.396C419.255 156.965 418.233 156.894 417.294 157.2C416.354 157.505 415.569 158.163 415.104 159.034C414.778 159.646 414.292 160.158 413.697 160.515C413.103 160.872 412.423 161.061 411.73 161.061C411.036 161.061 410.356 160.872 409.762 160.515C409.167 160.158 408.681 159.646 408.355 159.034C407.884 158.139 407.079 157.465 406.115 157.159C405.151 156.852 404.105 156.938 403.204 157.396C402.581 157.7 401.887 157.828 401.197 157.768C400.506 157.708 399.845 157.461 399.284 157.054C398.724 156.647 398.284 156.095 398.012 155.457C397.741 154.82 397.648 154.12 397.744 153.434C397.882 152.453 397.634 151.456 397.051 150.654C396.469 149.852 395.598 149.308 394.621 149.136C393.937 149.017 393.298 148.713 392.774 148.257C392.249 147.802 391.858 147.212 391.644 146.551C391.429 145.89 391.399 145.184 391.556 144.507C391.713 143.83 392.052 143.209 392.536 142.71C393.222 141.998 393.606 141.047 393.606 140.057C393.606 139.068 393.222 138.116 392.536 137.404C392.056 136.905 391.72 136.285 391.565 135.61C391.411 134.935 391.442 134.231 391.656 133.573C391.87 132.914 392.259 132.326 392.782 131.872C393.304 131.417 393.94 131.113 394.621 130.992C395.596 130.817 396.465 130.272 397.047 129.471C397.629 128.67 397.878 127.675 397.744 126.694C397.645 126.007 397.736 125.305 398.006 124.666C398.276 124.026 398.716 123.472 399.277 123.063C399.838 122.654 400.501 122.406 401.192 122.345C401.884 122.285 402.579 122.414 403.204 122.718C404.094 123.154 405.119 123.226 406.062 122.921C407.005 122.615 407.792 121.955 408.257 121.08C408.578 120.454 409.065 119.928 409.666 119.561C410.266 119.194 410.956 119 411.66 119C412.363 119 413.053 119.194 413.653 119.561C414.254 119.928 414.741 120.454 415.062 121.08Z" fill="url(#paint19_linear_297_8323)"/>
<path d="M415.062 121.08C415.522 121.957 416.306 122.619 417.248 122.925C418.19 123.231 419.214 123.157 420.102 122.718C420.726 122.414 421.421 122.285 422.113 122.345C422.804 122.406 423.467 122.654 424.028 123.063C424.589 123.472 425.029 124.026 425.299 124.666C425.569 125.305 425.66 126.007 425.562 126.694C425.43 127.674 425.681 128.668 426.262 129.468C426.844 130.268 427.711 130.814 428.684 130.992C429.368 131.109 430.007 131.411 430.533 131.865C431.058 132.319 431.449 132.908 431.664 133.568C431.879 134.228 431.909 134.934 431.751 135.611C431.594 136.287 431.254 136.907 430.77 137.404C430.083 138.116 429.699 139.068 429.699 140.057C429.699 141.047 430.083 141.998 430.77 142.71C431.253 143.209 431.592 143.83 431.749 144.507C431.906 145.184 431.876 145.89 431.661 146.551C431.447 147.212 431.056 147.802 430.531 148.257C430.007 148.713 429.368 149.017 428.684 149.136C427.717 149.321 426.858 149.87 426.285 150.67C425.711 151.47 425.468 152.459 425.604 153.434C425.699 154.12 425.606 154.82 425.335 155.457C425.063 156.095 424.623 156.647 424.063 157.054C423.502 157.461 422.841 157.708 422.15 157.768C421.46 157.828 420.766 157.7 420.144 157.396C419.255 156.965 418.233 156.894 417.294 157.2C416.354 157.505 415.569 158.163 415.104 159.034C414.778 159.646 414.292 160.158 413.697 160.515C413.103 160.872 412.423 161.061 411.73 161.061C411.036 161.061 410.356 160.872 409.762 160.515C409.167 160.158 408.681 159.646 408.355 159.034C407.884 158.139 407.079 157.465 406.115 157.159C405.151 156.852 404.105 156.938 403.204 157.396C402.581 157.7 401.887 157.828 401.197 157.768C400.506 157.708 399.845 157.461 399.284 157.054C398.724 156.647 398.284 156.095 398.012 155.457C397.741 154.82 397.648 154.12 397.744 153.434C397.882 152.453 397.634 151.456 397.051 150.654C396.469 149.852 395.598 149.308 394.621 149.136C393.937 149.017 393.298 148.713 392.774 148.257C392.249 147.802 391.858 147.212 391.644 146.551C391.429 145.89 391.399 145.184 391.556 144.507C391.713 143.83 392.052 143.209 392.536 142.71C393.222 141.998 393.606 141.047 393.606 140.057C393.606 139.068 393.222 138.116 392.536 137.404C392.056 136.905 391.72 136.285 391.565 135.61C391.411 134.935 391.442 134.231 391.656 133.573C391.87 132.914 392.259 132.326 392.782 131.872C393.304 131.417 393.94 131.113 394.621 130.992C395.596 130.817 396.465 130.272 397.047 129.471C397.629 128.67 397.878 127.675 397.744 126.694C397.645 126.007 397.736 125.305 398.006 124.666C398.276 124.026 398.716 123.472 399.277 123.063C399.838 122.654 400.501 122.406 401.192 122.345C401.884 122.285 402.579 122.414 403.204 122.718C404.094 123.154 405.119 123.226 406.062 122.921C407.005 122.615 407.792 121.955 408.257 121.08C408.578 120.454 409.065 119.928 409.666 119.561C410.266 119.194 410.956 119 411.66 119C412.363 119 413.053 119.194 413.653 119.561C414.254 119.928 414.741 120.454 415.062 121.08Z" fill="url(#paint20_linear_297_8323)"/>
<g opacity="0.5">
<path d="M415.062 121.08C415.522 121.957 416.306 122.619 417.248 122.925C418.19 123.231 419.214 123.157 420.102 122.718C420.726 122.414 421.421 122.285 422.113 122.345C422.804 122.406 423.467 122.654 424.028 123.063C424.589 123.472 425.029 124.026 425.299 124.666C425.569 125.305 425.66 126.007 425.562 126.694C425.43 127.674 425.681 128.668 426.262 129.468C426.844 130.268 427.711 130.814 428.684 130.992C429.368 131.109 430.007 131.411 430.533 131.865C431.058 132.319 431.449 132.908 431.664 133.568C431.879 134.228 431.909 134.934 431.751 135.611C431.594 136.287 431.254 136.907 430.77 137.404C430.083 138.116 429.699 139.068 429.699 140.057C429.699 141.047 430.083 141.998 430.77 142.71C431.253 143.209 431.592 143.83 431.749 144.507C431.906 145.184 431.876 145.89 431.661 146.551C431.447 147.212 431.056 147.802 430.531 148.257C430.007 148.713 429.368 149.017 428.684 149.136C427.717 149.321 426.858 149.87 426.285 150.67C425.711 151.47 425.468 152.459 425.604 153.434C425.699 154.12 425.606 154.82 425.335 155.457C425.063 156.095 424.623 156.647 424.063 157.054C423.502 157.461 422.841 157.708 422.15 157.768C421.46 157.828 420.766 157.7 420.144 157.396C419.255 156.965 418.233 156.894 417.294 157.2C416.354 157.505 415.569 158.163 415.104 159.034C414.778 159.646 414.292 160.158 413.697 160.515C413.103 160.872 412.423 161.061 411.73 161.061C411.036 161.061 410.356 160.872 409.762 160.515C409.167 160.158 408.681 159.646 408.355 159.034C407.884 158.139 407.079 157.465 406.115 157.159C405.151 156.852 404.105 156.938 403.204 157.396C402.581 157.7 401.887 157.828 401.197 157.768C400.506 157.708 399.845 157.461 399.284 157.054C398.724 156.647 398.284 156.095 398.012 155.457C397.741 154.82 397.648 154.12 397.744 153.434C397.882 152.453 397.634 151.456 397.051 150.654C396.469 149.852 395.598 149.308 394.621 149.136C393.937 149.017 393.298 148.713 392.774 148.257C392.249 147.802 391.858 147.212 391.644 146.551C391.429 145.89 391.399 145.184 391.556 144.507C391.713 143.83 392.052 143.209 392.536 142.71C393.222 141.998 393.606 141.047 393.606 140.057C393.606 139.068 393.222 138.116 392.536 137.404C392.056 136.905 391.72 136.285 391.565 135.61C391.411 134.935 391.442 134.231 391.656 133.573C391.87 132.914 392.259 132.326 392.782 131.872C393.304 131.417 393.94 131.113 394.621 130.992C395.596 130.817 396.465 130.272 397.047 129.471C397.629 128.67 397.878 127.675 397.744 126.694C397.645 126.007 397.736 125.305 398.006 124.666C398.276 124.026 398.716 123.472 399.277 123.063C399.838 122.654 400.501 122.406 401.192 122.345C401.884 122.285 402.579 122.414 403.204 122.718C404.094 123.154 405.119 123.226 406.062 122.921C407.005 122.615 407.792 121.955 408.257 121.08C408.578 120.454 409.065 119.928 409.666 119.561C410.266 119.194 410.956 119 411.66 119C412.363 119 413.053 119.194 413.653 119.561C414.254 119.928 414.741 120.454 415.062 121.08Z" fill="white"/>
</g>
<path d="M405.627 136.102H403.891C403.505 136.103 403.133 136.247 402.846 136.505C402.559 136.764 402.378 137.118 402.337 137.502L401.917 145.51C401.905 145.701 401.933 145.892 401.998 146.072C402.063 146.251 402.165 146.416 402.296 146.555C402.427 146.694 402.585 146.805 402.761 146.88C402.936 146.956 403.125 146.995 403.317 146.994H405.053C405.451 146.988 405.832 146.832 406.12 146.556C406.408 146.281 406.582 145.908 406.607 145.51L407.027 137.502C407.027 137.131 406.879 136.775 406.617 136.512C406.354 136.25 405.998 136.102 405.627 136.102Z" fill="white"/>
<path d="M419.472 136.102H415.398L416.532 133.428C416.661 133.148 416.709 132.838 416.672 132.532L416.434 130.432C416.389 130.025 416.196 129.648 415.891 129.375C415.586 129.101 415.192 128.949 414.782 128.948H412.752C412.627 131.046 411.859 133.055 410.554 134.702L409.308 136.27C408.989 136.671 408.798 137.159 408.762 137.67L408.37 145.146C408.357 145.382 408.392 145.619 408.473 145.841C408.554 146.063 408.68 146.266 408.842 146.438C409.005 146.609 409.201 146.746 409.418 146.839C409.635 146.933 409.869 146.98 410.106 146.98H417.204C417.519 146.977 417.83 146.908 418.117 146.778C418.403 146.647 418.66 146.459 418.87 146.224L419.528 145.496C419.758 145.204 419.921 144.865 420.004 144.502L421.404 138.468C421.465 138.191 421.467 137.905 421.409 137.627C421.351 137.349 421.235 137.087 421.068 136.858C420.879 136.617 420.636 136.423 420.359 136.292C420.082 136.16 419.778 136.096 419.472 136.102Z" fill="white"/>
<path d="M350.018 184.976L352.272 188.588L356.402 189.61L353.672 192.872L353.966 197.1L350.018 195.518L346.084 197.1L346.378 192.872L343.648 189.61L347.778 188.588L350.018 184.976Z" fill="white"/>
<path d="M331.271 385.778C331.271 388.382 329.185 390.118 325.923 390.398L325.489 392.54H323.529L323.963 390.398C322.36 390.289 320.812 389.768 319.469 388.886L320.771 386.464C321.86 387.244 323.134 387.726 324.467 387.864L325.139 384.56C323.319 384.014 321.317 383.286 321.317 380.92C321.317 378.316 323.459 376.566 326.777 376.328L327.211 374.172H329.171L328.737 376.342C330.005 376.442 331.234 376.825 332.335 377.462L331.145 379.884C330.264 379.318 329.261 378.973 328.219 378.876L327.547 382.306C329.339 382.824 331.271 383.524 331.271 385.778ZM325.671 381.746L326.231 378.946C325.125 379.156 324.495 379.772 324.481 380.514C324.467 381.256 324.985 381.452 325.685 381.746H325.671ZM328.093 386.282C328.093 385.722 327.645 385.372 326.959 385.12L326.427 387.794C327.505 387.584 328.107 387.024 328.107 386.282H328.093Z" fill="white"/>
<path d="M232.064 153.588H150.164C135.759 153.588 124.082 165.265 124.082 179.67V401.962C124.082 416.367 135.759 428.044 150.164 428.044H232.064C246.469 428.044 258.146 416.367 258.146 401.962V179.67C258.146 165.265 246.469 153.588 232.064 153.588Z" fill="#263238"/>
<path opacity="0.7" d="M231.658 153.588H150.57C135.941 153.588 124.082 165.447 124.082 180.076V401.556C124.082 416.185 135.941 428.044 150.57 428.044H231.658C246.287 428.044 258.146 416.185 258.146 401.556V180.076C258.146 165.447 246.287 153.588 231.658 153.588Z" fill="white"/>
<path d="M258.146 167.056V221.502H124.082V167.056C124.082 163.484 125.501 160.059 128.027 157.533C130.552 155.007 133.978 153.588 137.55 153.588H244.678C248.25 153.588 251.676 155.007 254.201 157.533C256.727 160.059 258.146 163.484 258.146 167.056Z" fill="url(#paint21_linear_297_8323)"/>
<path d="M258.146 167.056V221.502H124.082V167.056C124.082 163.484 125.501 160.059 128.027 157.533C130.552 155.007 133.978 153.588 137.55 153.588H244.678C248.25 153.588 251.676 155.007 254.201 157.533C256.727 160.059 258.146 163.484 258.146 167.056Z" fill="url(#paint22_linear_297_8323)"/>
<path d="M180.095 187.44C180.095 189.526 178.471 190.744 175.335 190.744H169.273V178.564H174.999C177.925 178.564 179.493 179.796 179.493 181.728C179.509 182.276 179.37 182.817 179.093 183.29C178.815 183.763 178.411 184.148 177.925 184.402C178.576 184.59 179.145 184.993 179.538 185.544C179.932 186.095 180.128 186.763 180.095 187.44ZM171.541 180.328V183.702H174.733C176.301 183.702 177.197 183.156 177.197 182.036C177.197 180.916 176.301 180.342 174.733 180.342L171.541 180.328ZM177.813 187.216C177.813 185.998 176.903 185.452 175.195 185.452H171.541V188.966H175.195C176.903 188.966 177.799 188.434 177.799 187.216H177.813Z" fill="white"/>
<path d="M190.09 185.298V190.702H188.046V189.568C187.703 190.006 187.255 190.35 186.744 190.57C186.233 190.791 185.675 190.879 185.12 190.828C182.992 190.828 181.648 189.666 181.648 188.028C181.648 186.39 182.698 185.228 185.512 185.228H187.92V185.088C187.92 183.814 187.15 183.072 185.596 183.072C184.587 183.066 183.604 183.391 182.796 183.996L181.942 182.414C183.096 181.618 184.476 181.215 185.876 181.266C188.55 181.35 190.09 182.61 190.09 185.298ZM187.92 187.902V186.824H185.666C184.196 186.824 183.79 187.384 183.79 188.07C183.79 188.756 184.448 189.358 185.568 189.358C186.064 189.393 186.557 189.271 186.979 189.01C187.401 188.748 187.731 188.361 187.92 187.902Z" fill="white"/>
<path d="M191.801 189.82L192.641 188.168C193.613 188.767 194.732 189.087 195.875 189.092C197.275 189.092 197.835 188.714 197.835 188.07C197.835 186.292 192.081 187.958 192.081 184.248C192.081 182.498 193.663 181.35 196.183 181.35C197.388 181.327 198.58 181.601 199.655 182.148L198.829 183.8C198.018 183.328 197.093 183.086 196.155 183.1C194.839 183.1 194.209 183.534 194.209 184.15C194.209 186.026 199.949 184.36 199.949 188C199.949 189.736 198.353 190.87 195.749 190.87C194.361 190.894 192.993 190.531 191.801 189.82Z" fill="white"/>
<path d="M201.601 178.606C201.601 178.235 201.748 177.879 202.011 177.616C202.273 177.354 202.629 177.206 203.001 177.206C203.372 177.206 203.728 177.354 203.99 177.616C204.253 177.879 204.401 178.235 204.401 178.606C204.401 178.977 204.253 179.334 203.99 179.596C203.728 179.859 203.372 180.006 203.001 180.006C202.813 180.019 202.626 179.991 202.45 179.925C202.275 179.859 202.116 179.756 201.983 179.624C201.851 179.491 201.748 179.332 201.682 179.156C201.616 178.981 201.588 178.793 201.601 178.606ZM201.895 181.406H204.065V190.702H201.895V181.406Z" fill="white"/>
<path d="M206.11 186.096C206.102 185.446 206.23 184.801 206.484 184.202C206.739 183.603 207.115 183.064 207.589 182.618C208.062 182.171 208.623 181.829 209.236 181.61C209.849 181.392 210.501 181.304 211.15 181.35C211.947 181.295 212.743 181.469 213.445 181.851C214.146 182.233 214.725 182.807 215.112 183.506L213.446 184.472C213.209 184.073 212.87 183.743 212.464 183.517C212.059 183.291 211.6 183.176 211.136 183.184C210.363 183.184 209.623 183.491 209.077 184.037C208.53 184.583 208.224 185.324 208.224 186.096C208.224 186.868 208.53 187.609 209.077 188.155C209.623 188.701 210.363 189.008 211.136 189.008C211.6 189.016 212.059 188.902 212.464 188.675C212.87 188.449 213.209 188.12 213.446 187.72L215.112 188.686C214.729 189.39 214.152 189.97 213.45 190.357C212.748 190.744 211.95 190.922 211.15 190.87C210.499 190.913 209.847 190.82 209.234 190.599C208.621 190.378 208.06 190.032 207.587 189.584C207.114 189.135 206.739 188.594 206.484 187.994C206.23 187.394 206.103 186.748 206.11 186.096Z" fill="white"/>
<path d="M197.547 314.852C202.2 310.199 202.2 302.656 197.547 298.003C192.894 293.35 185.351 293.35 180.698 298.003C176.045 302.656 176.045 310.199 180.698 314.852C185.351 319.505 192.894 319.505 197.547 314.852Z" fill="#263238"/>
<path opacity="0.5" d="M197.547 314.852C202.2 310.199 202.2 302.656 197.547 298.003C192.894 293.35 185.351 293.35 180.698 298.003C176.045 302.656 176.045 310.199 180.698 314.852C185.351 319.505 192.894 319.505 197.547 314.852Z" fill="white"/>
<path d="M192.645 299.696L182.379 309.962L185.576 313.159L195.842 302.893L192.645 299.696Z" fill="white"/>
<path d="M182.383 302.906L192.648 313.172L195.846 309.974L185.58 299.708L182.383 302.906Z" fill="white"/>
<path d="M189.673 362.496C196.322 362.496 201.713 357.106 201.713 350.456C201.713 343.807 196.322 338.416 189.673 338.416C183.023 338.416 177.633 343.807 177.633 350.456C177.633 357.106 183.023 362.496 189.673 362.496Z" fill="url(#paint23_linear_297_8323)"/>
<path d="M198.296 347.852L191.366 354.782L188.132 358.016L184.898 354.782L188.132 351.548L195.062 344.618L198.296 347.852Z" fill="white"/>
<path d="M191.365 354.782L188.131 358.016L181.285 351.156L184.505 347.922L188.131 351.548L191.365 354.782Z" fill="white"/>
<path d="M219.1 384.868H163.128C155.519 384.868 149.352 391.036 149.352 398.644V399.694C149.352 407.302 155.519 413.47 163.128 413.47H219.1C226.708 413.47 232.876 407.302 232.876 399.694V398.644C232.876 391.036 226.708 384.868 219.1 384.868Z" fill="url(#paint24_linear_297_8323)"/>
<path d="M167.453 401.878C167.453 404.482 165.367 406.218 162.091 406.484L161.671 408.64H159.711L160.145 406.484C158.538 406.383 156.985 405.867 155.637 404.986L156.953 402.564C158.042 403.344 159.316 403.826 160.649 403.964L161.307 400.66C159.501 400.114 157.499 399.386 157.499 397.02C157.499 394.416 159.627 392.652 162.959 392.428L163.393 390.272H165.339L164.919 392.442C166.187 392.542 167.416 392.925 168.517 393.562L167.313 395.984C166.438 395.414 165.44 395.063 164.401 394.962L163.715 398.406C165.521 398.924 167.453 399.624 167.453 401.878ZM161.853 397.846L162.413 395.046C161.293 395.256 160.677 395.858 160.649 396.614C160.621 397.37 161.153 397.552 161.867 397.902L161.853 397.846ZM164.275 402.382C164.275 401.822 163.827 401.458 163.141 401.206L162.609 403.894C163.673 403.67 164.289 403.124 164.289 402.382H164.275Z" fill="white"/>
<path d="M224.28 326.348H155.078V329.148H224.28V326.348Z" fill="url(#paint25_linear_297_8323)"/>
<path d="M224.28 280.372H155.078V283.172H224.28V280.372Z" fill="url(#paint26_linear_297_8323)"/>
<path d="M224.28 236.062H155.078V238.862H224.28V236.062Z" fill="url(#paint27_linear_297_8323)"/>
<path d="M197.551 268.042C202.203 263.389 202.203 255.846 197.551 251.193C192.898 246.54 185.355 246.54 180.702 251.193C176.049 255.846 176.049 263.389 180.702 268.042C185.355 272.695 192.898 272.695 197.551 268.042Z" fill="#263238"/>
<path opacity="0.5" d="M197.551 268.042C202.203 263.389 202.203 255.846 197.551 251.193C192.898 246.54 185.355 246.54 180.702 251.193C176.049 255.846 176.049 263.389 180.702 268.042C185.355 272.695 192.898 272.695 197.551 268.042Z" fill="white"/>
<path d="M192.653 252.886L182.387 263.152L185.584 266.349L195.85 256.083L192.653 252.886Z" fill="white"/>
<path d="M182.387 256.084L192.652 266.35L195.85 263.152L185.584 252.886L182.387 256.084Z" fill="white"/>
</g>
<defs>
<linearGradient id="paint0_linear_297_8323" x1="560.102" y1="174.117" x2="388.783" y2="231.478" gradientUnits="userSpaceOnUse">
<stop stop-color="#3B5DA8"/>
<stop offset="1" stop-color="#E9476E"/>
</linearGradient>
<linearGradient id="paint1_linear_297_8323" x1="560.102" y1="158.668" x2="492.799" y2="249.735" gradientUnits="userSpaceOnUse">
<stop stop-color="#3B5DA8"/>
<stop offset="1" stop-color="#E9476E"/>
</linearGradient>
<linearGradient id="paint2_linear_297_8323" x1="540.793" y1="387.008" x2="517.084" y2="434.464" gradientUnits="userSpaceOnUse">
<stop stop-color="#3B5DA8"/>
<stop offset="1" stop-color="#E9476E"/>
</linearGradient>
<linearGradient id="paint3_linear_297_8323" x1="533.871" y1="326.558" x2="533.53" y2="332.343" gradientUnits="userSpaceOnUse">
<stop stop-color="#3B5DA8"/>
<stop offset="1" stop-color="#E9476E"/>
</linearGradient>
<linearGradient id="paint4_linear_297_8323" x1="533.871" y1="280.582" x2="533.53" y2="286.367" gradientUnits="userSpaceOnUse">
<stop stop-color="#3B5DA8"/>
<stop offset="1" stop-color="#E9476E"/>
</linearGradient>
<linearGradient id="paint5_linear_297_8323" x1="533.871" y1="236.272" x2="533.53" y2="242.057" gradientUnits="userSpaceOnUse">
<stop stop-color="#3B5DA8"/>
<stop offset="1" stop-color="#E9476E"/>
</linearGradient>
<linearGradient id="paint6_linear_297_8323" x1="506.148" y1="245.753" x2="500.969" y2="273.5" gradientUnits="userSpaceOnUse">
<stop stop-color="#3B5DA8"/>
<stop offset="1" stop-color="#E9476E"/>
</linearGradient>
<linearGradient id="paint7_linear_297_8323" x1="516.08" y1="293.681" x2="492.797" y2="309.64" gradientUnits="userSpaceOnUse">
<stop stop-color="#3B5DA8"/>
<stop offset="1" stop-color="#E9476E"/>
</linearGradient>
<linearGradient id="paint8_linear_297_8323" x1="516.08" y1="341.323" x2="492.797" y2="357.282" gradientUnits="userSpaceOnUse">
<stop stop-color="#3B5DA8"/>
<stop offset="1" stop-color="#E9476E"/>
</linearGradient>
<linearGradient id="paint9_linear_297_8323" x1="402.595" y1="158.493" x2="231.275" y2="215.854" gradientUnits="userSpaceOnUse">
<stop stop-color="#3B5DA8"/>
<stop offset="1" stop-color="#E9476E"/>
</linearGradient>
<linearGradient id="paint10_linear_297_8323" x1="402.607" y1="143.113" x2="335.323" y2="234.182" gradientUnits="userSpaceOnUse">
<stop stop-color="#3B5DA8"/>
<stop offset="1" stop-color="#E9476E"/>
</linearGradient>
<linearGradient id="paint11_linear_297_8323" x1="384.418" y1="371.384" x2="360.709" y2="418.84" gradientUnits="userSpaceOnUse">
<stop stop-color="#3B5DA8"/>
<stop offset="1" stop-color="#E9476E"/>
</linearGradient>
<linearGradient id="paint12_linear_297_8323" x1="377.512" y1="310.934" x2="377.171" y2="316.719" gradientUnits="userSpaceOnUse">
<stop stop-color="#3B5DA8"/>
<stop offset="1" stop-color="#E9476E"/>
</linearGradient>
<linearGradient id="paint13_linear_297_8323" x1="377.512" y1="264.957" x2="377.171" y2="270.743" gradientUnits="userSpaceOnUse">
<stop stop-color="#3B5DA8"/>
<stop offset="1" stop-color="#E9476E"/>
</linearGradient>
<linearGradient id="paint14_linear_297_8323" x1="377.512" y1="220.648" x2="377.171" y2="226.433" gradientUnits="userSpaceOnUse">
<stop stop-color="#3B5DA8"/>
<stop offset="1" stop-color="#E9476E"/>
</linearGradient>
<linearGradient id="paint15_linear_297_8323" x1="342.163" y1="276.99" x2="352.347" y2="303.316" gradientUnits="userSpaceOnUse">
<stop stop-color="#3B5DA8"/>
<stop offset="1" stop-color="#E9476E"/>
</linearGradient>
<linearGradient id="paint16_linear_297_8323" x1="355.652" y1="322.959" x2="340.249" y2="346.613" gradientUnits="userSpaceOnUse">
<stop stop-color="#3B5DA8"/>
<stop offset="1" stop-color="#E9476E"/>
</linearGradient>
<linearGradient id="paint17_linear_297_8323" x1="410.976" y1="155.418" x2="401.582" y2="156.778" gradientUnits="userSpaceOnUse">
<stop stop-color="#3B5DA8"/>
<stop offset="1" stop-color="#E9476E"/>
</linearGradient>
<linearGradient id="paint18_linear_297_8323" x1="417.713" y1="155.418" x2="408.339" y2="156.772" gradientUnits="userSpaceOnUse">
<stop stop-color="#3B5DA8"/>
<stop offset="1" stop-color="#E9476E"/>
</linearGradient>
<linearGradient id="paint19_linear_297_8323" x1="427.086" y1="122.146" x2="387.036" y2="148.511" gradientUnits="userSpaceOnUse">
<stop stop-color="#3B5DA8"/>
<stop offset="1" stop-color="#E9476E"/>
</linearGradient>
<linearGradient id="paint20_linear_297_8323" x1="427.086" y1="122.146" x2="387.036" y2="148.511" gradientUnits="userSpaceOnUse">
<stop stop-color="#3B5DA8"/>
<stop offset="1" stop-color="#E9476E"/>
</linearGradient>
<linearGradient id="paint21_linear_297_8323" x1="242.333" y1="158.668" x2="175.029" y2="249.735" gradientUnits="userSpaceOnUse">
<stop stop-color="#3B5DA8"/>
<stop offset="1" stop-color="#E9476E"/>
</linearGradient>
<linearGradient id="paint22_linear_297_8323" x1="242.333" y1="158.668" x2="175.029" y2="249.735" gradientUnits="userSpaceOnUse">
<stop stop-color="#3B5DA8"/>
<stop offset="1" stop-color="#E9476E"/>
</linearGradient>
<linearGradient id="paint23_linear_297_8323" x1="198.873" y1="340.217" x2="175.59" y2="356.176" gradientUnits="userSpaceOnUse">
<stop stop-color="#3B5DA8"/>
<stop offset="1" stop-color="#E9476E"/>
</linearGradient>
<linearGradient id="paint24_linear_297_8323" x1="223.024" y1="387.008" x2="199.315" y2="434.464" gradientUnits="userSpaceOnUse">
<stop stop-color="#3B5DA8"/>
<stop offset="1" stop-color="#E9476E"/>
</linearGradient>
<linearGradient id="paint25_linear_297_8323" x1="216.118" y1="326.558" x2="215.776" y2="332.343" gradientUnits="userSpaceOnUse">
<stop stop-color="#3B5DA8"/>
<stop offset="1" stop-color="#E9476E"/>
</linearGradient>
<linearGradient id="paint26_linear_297_8323" x1="216.118" y1="280.582" x2="215.776" y2="286.367" gradientUnits="userSpaceOnUse">
<stop stop-color="#3B5DA8"/>
<stop offset="1" stop-color="#E9476E"/>
</linearGradient>
<linearGradient id="paint27_linear_297_8323" x1="216.118" y1="236.272" x2="215.776" y2="242.057" gradientUnits="userSpaceOnUse">
<stop stop-color="#3B5DA8"/>
<stop offset="1" stop-color="#E9476E"/>
</linearGradient>
<clipPath id="clip0_297_8323">
<rect width="700" height="485" fill="white"/>
</clipPath>
</defs>
</svg>
