<svg width="150" height="150" viewBox="0 0 150 150" fill="none" xmlns="http://www.w3.org/2000/svg">
<g clip-path="url(#clip0_261_1474)">
<path opacity="0.967" fill-rule="evenodd" clip-rule="evenodd" d="M149.852 74.2676C149.852 74.6581 149.852 75.0489 149.852 75.4395C135.493 93.3492 117.329 105.8 95.3594 112.793C77.0711 117.584 59.2979 116.12 42.0391 108.398C25.3813 100.708 11.3188 89.7214 -0.148438 75.4395C-0.148438 75.0489 -0.148438 74.6581 -0.148438 74.2676C14.2099 56.3578 32.374 43.9067 54.3438 36.9141C72.632 32.1226 90.4053 33.5874 107.664 41.3086C124.322 48.9993 138.384 59.9857 149.852 74.2676ZM49.9492 99.7559C36.0856 94.1417 24.074 85.841 13.9141 74.8535C24.3352 63.5625 36.6889 55.0664 50.9746 49.3653C52.4395 51.0255 53.9043 52.6855 55.3691 54.3457C65.2694 45.874 76.1579 44.3605 88.0352 49.8047C99.6707 56.865 104.505 67.1678 102.537 80.7129C99.9153 91.3427 93.4211 98.4229 83.0547 101.953C70.1623 105.049 59.6644 101.387 51.5605 90.9668C46.8915 83.7539 45.4756 75.9413 47.3125 67.5293C45.0792 67.1408 42.833 66.8479 40.5742 66.6504C38.1007 79.3204 41.2258 90.3554 49.9492 99.7559ZM99.7539 49.9512C113.614 55.5639 125.626 63.8649 135.789 74.8535C125.629 85.841 113.617 94.1417 99.7539 99.7559C110.073 88.4238 112.563 75.5332 107.225 61.084C105.385 56.9098 102.895 53.1991 99.7539 49.9512Z" fill="url(#paint0_linear_261_1474)"/>
<path opacity="0.977" fill-rule="evenodd" clip-rule="evenodd" d="M72.2184 55.8104C83.9445 55.3845 91.1223 60.8533 93.7516 72.2167C94.4375 82.0663 90.2873 88.9511 81.3005 92.871C69.8975 95.7377 61.7433 91.8805 56.8376 81.2987C55.5476 77.3463 55.4987 73.3912 56.6911 69.4335C61.2857 69.9878 65.8757 70.5737 70.4606 71.1913C67.4606 67.9206 64.5309 64.6004 61.6716 61.2304C64.5758 58.2643 68.0914 56.4579 72.2184 55.8104Z" fill="url(#paint1_linear_261_1474)"/>
<ellipse opacity="0.1" cx="68.2895" cy="9.07895" rx="68.2895" ry="9.07895" transform="matrix(1 0 0 -1 7.10547 135.79)" fill="url(#paint2_linear_261_1474)"/>
</g>
<defs>
<linearGradient id="paint0_linear_261_1474" x1="132.159" y1="40.2492" x2="50.0452" y2="143.988" gradientUnits="userSpaceOnUse">
<stop stop-color="#3B5DA8"/>
<stop offset="1" stop-color="#E9476E"/>
</linearGradient>
<linearGradient id="paint1_linear_261_1474" x1="89.3433" y1="58.6297" x2="52.6042" y2="83.8071" gradientUnits="userSpaceOnUse">
<stop stop-color="#3B5DA8"/>
<stop offset="1" stop-color="#E9476E"/>
</linearGradient>
<linearGradient id="paint2_linear_261_1474" x1="120.469" y1="1.35818" x2="113.432" y2="37.6406" gradientUnits="userSpaceOnUse">
<stop stop-color="#3B5DA8"/>
<stop offset="1" stop-color="#E9476E"/>
</linearGradient>
<clipPath id="clip0_261_1474">
<rect width="150" height="150" fill="white"/>
</clipPath>
</defs>
</svg>
