<svg width="9" height="16" viewBox="0 0 9 16" fill="none" xmlns="http://www.w3.org/2000/svg">
<path opacity="0.984" fill-rule="evenodd" clip-rule="evenodd" d="M5.94141 0.794188C6.66806 0.788331 7.39463 0.794188 8.1211 0.811767C8.29411 0.835135 8.382 0.934743 8.38477 1.11059C8.40822 1.83716 8.40822 2.56371 8.38477 3.29028C8.37725 3.42873 8.31281 3.52836 8.19141 3.58911C7.55762 3.59382 6.92481 3.61723 6.29298 3.65942C6.03834 3.7175 5.89188 3.8757 5.85352 4.13403C5.83595 4.74329 5.83007 5.35265 5.83595 5.96216C6.62429 5.94532 7.40947 5.96289 8.19141 6.01489C8.27477 6.1089 8.31576 6.22024 8.31446 6.34888C8.33791 7.08716 8.33791 7.82544 8.31446 8.56372C8.3357 8.80904 8.22436 8.93209 7.98048 8.93286C7.26572 8.95044 6.55088 8.95631 5.83595 8.95044C5.84182 10.9544 5.83595 12.9583 5.81837 14.9622C5.80452 15.0814 5.74008 15.1576 5.62501 15.1907C4.7344 15.2141 3.84375 15.2141 2.95313 15.1907C2.8342 15.1422 2.76976 15.0543 2.75977 14.927C2.7422 12.9348 2.73633 10.9427 2.7422 8.95044C2.06013 8.96671 1.38042 8.94914 0.703134 8.8977C0.654161 8.85653 0.624841 8.8038 0.615243 8.7395C0.591794 7.88404 0.591794 7.02855 0.615243 6.17309C0.631591 6.12279 0.660911 6.08179 0.703134 6.05005C1.37958 5.99819 2.05925 5.98061 2.7422 5.99731C2.73003 5.24645 2.74761 4.49646 2.79493 3.74731C3.08022 1.94438 4.12904 0.960003 5.94141 0.794188Z" fill="#CCCEE3"/>
</svg>
