<svg width="160" height="160" viewBox="0 0 160 160" fill="none" xmlns="http://www.w3.org/2000/svg">
<g filter="url(#filter0_d_305_9810)">
<rect x="35" y="35" width="90" height="90" rx="45" fill="#FAFAFC" shape-rendering="crispEdges"/>
<rect x="35.5" y="35.5" width="89" height="89" rx="44.5" stroke="url(#paint0_linear_305_9810)" shape-rendering="crispEdges"/>
<path opacity="0.992" fill-rule="evenodd" clip-rule="evenodd" d="M76.266 64.652C79.8208 64.6406 83.3754 64.652 86.9301 64.6862L87.2035 64.8229L90.724 68.3434L90.8607 68.6168C90.8949 69.4824 90.9063 70.3483 90.8949 71.2145H75.5824C75.571 69.2547 75.5824 67.2951 75.6166 65.3356C75.7548 65.0266 75.9713 64.7987 76.266 64.652ZM68.3438 71.2145C69.1644 71.2031 69.9847 71.2145 70.8047 71.2487C72.1605 71.6019 73.015 72.4564 73.3682 73.8121C73.4138 80.1012 73.4138 86.3903 73.3682 92.6793C73.015 94.0351 72.1605 94.8896 70.8047 95.2428C69.9844 95.2884 69.1641 95.2884 68.3438 95.2428C66.988 94.8896 66.1335 94.0351 65.7803 92.6793C65.7347 86.3903 65.7347 80.1012 65.7803 73.8121C66.1459 72.4553 67.0004 71.5894 68.3438 71.2145ZM91.5859 73.4362C86.254 73.402 80.9219 73.3906 75.5898 73.402V93.0895C80.9219 93.1009 86.254 93.0895 91.5859 93.0553C92.9417 92.7021 93.7962 91.8476 94.1494 90.4918C94.195 85.6611 94.195 80.8304 94.1494 75.9996C93.7962 74.6439 92.9417 73.7894 91.5859 73.4362ZM88.7148 77.8112C85.7983 77.777 82.8816 77.7656 79.9648 77.777C79.632 77.8355 79.3471 77.9951 79.1104 78.2555C78.7337 79.1542 79.0185 79.7124 79.9648 79.9303C82.8815 79.9759 85.7982 79.9759 88.7148 79.9303C89.1979 79.8997 89.5283 79.6605 89.7061 79.2125C89.8548 78.4045 89.5244 77.9374 88.7148 77.8112ZM80.8193 83.861C81.202 82.7506 80.8033 82.2037 79.623 82.2203C79.4258 82.3146 79.2549 82.4513 79.1104 82.6305C78.8248 83.183 78.9045 83.6729 79.3496 84.1002C79.9021 84.3858 80.392 84.3061 80.8193 83.861ZM85.1943 83.861C85.577 82.7506 85.1783 82.2037 83.998 82.2203C83.8008 82.3146 83.6299 82.4513 83.4854 82.6305C83.1998 83.183 83.2795 83.6729 83.7246 84.1002C84.2771 84.3858 84.767 84.3061 85.1943 83.861ZM89.5693 83.861C89.952 82.7506 89.5533 82.2037 88.373 82.2203C88.1758 82.3146 88.0049 82.4513 87.8604 82.6305C87.5748 83.183 87.6545 83.6729 88.0996 84.1002C88.6521 84.3858 89.142 84.3061 89.5693 83.861ZM80.8193 88.236C81.202 87.1256 80.8033 86.5787 79.623 86.5953C79.4258 86.6896 79.2549 86.8263 79.1104 87.0055C78.8248 87.558 78.9045 88.0479 79.3496 88.4752C79.9021 88.7608 80.392 88.6811 80.8193 88.236ZM85.1943 88.236C85.577 87.1256 85.1783 86.5787 83.998 86.5953C83.8008 86.6896 83.6299 86.8263 83.4854 87.0055C83.1998 87.558 83.2795 88.0479 83.7246 88.4752C84.2771 88.7608 84.767 88.6811 85.1943 88.236ZM89.5693 88.236C89.952 87.1256 89.5533 86.5787 88.373 86.5953C88.1758 86.6896 88.0049 86.8263 87.8604 87.0055C87.5748 87.558 87.6545 88.0479 88.0996 88.4752C88.6521 88.7608 89.142 88.6811 89.5693 88.236Z" fill="url(#paint1_linear_305_9810)"/>
</g>
<defs>
<filter id="filter0_d_305_9810" x="0" y="0" width="160" height="160" filterUnits="userSpaceOnUse" color-interpolation-filters="sRGB">
<feFlood flood-opacity="0" result="BackgroundImageFix"/>
<feColorMatrix in="SourceAlpha" type="matrix" values="0 0 0 0 0 0 0 0 0 0 0 0 0 0 0 0 0 0 127 0" result="hardAlpha"/>
<feOffset/>
<feGaussianBlur stdDeviation="17.5"/>
<feComposite in2="hardAlpha" operator="out"/>
<feColorMatrix type="matrix" values="0 0 0 0 0.835294 0 0 0 0 0.290196 0 0 0 0 0.458824 0 0 0 0.07 0"/>
<feBlend mode="normal" in2="BackgroundImageFix" result="effect1_dropShadow_305_9810"/>
<feBlend mode="normal" in="SourceGraphic" in2="effect1_dropShadow_305_9810" result="shape"/>
</filter>
<linearGradient id="paint0_linear_305_9810" x1="79.9994" y1="35.001" x2="79.9994" y2="124.994" gradientUnits="userSpaceOnUse">
<stop stop-color="#3B5DA8"/>
<stop offset="1" stop-color="#E9476E"/>
</linearGradient>
<linearGradient id="paint1_linear_305_9810" x1="90.8293" y1="66.9387" x2="62.0648" y2="85.2443" gradientUnits="userSpaceOnUse">
<stop stop-color="#3B5DA8"/>
<stop offset="1" stop-color="#E9476E"/>
</linearGradient>
</defs>
</svg>
