<svg width="19" height="18" viewBox="0 0 19 18" fill="none" xmlns="http://www.w3.org/2000/svg">
<g clip-path="url(#clip0_734_179)">
<path opacity="0.978" fill-rule="evenodd" clip-rule="evenodd" d="M6.47656 6.74532e-08C8.50392 6.74532e-08 10.5312 6.74532e-08 12.5586 6.74532e-08C16.5191 -0.000422018 18.4996 1.98005 18.5 5.94141C18.5 7.99218 18.5 10.043 18.5 12.0938C18.4647 15.9963 16.4959 17.965 12.5938 18C10.4024 18 8.21093 18 6.01953 18C2.47051 17.826 0.630669 15.9627 0.5 12.4102C0.5 10.1016 0.5 7.79298 0.5 5.48438C0.543584 4.59281 0.725224 3.72565 1.04492 2.88281C1.83057 1.27911 3.11377 0.359184 4.89453 0.123047C5.42595 0.064059 5.9533 0.0230434 6.47656 6.74532e-08ZM6.6875 1.61719C8.50441 1.63331 10.3208 1.63917 12.1367 1.63477C12.9717 1.63074 13.792 1.73621 14.5977 1.95117C15.668 2.28322 16.3418 2.9922 16.6191 4.07812C16.7137 4.44748 16.7724 4.82245 16.7949 5.20312C16.8333 6.48004 16.8509 7.75737 16.8477 9.03516C16.8514 10.2662 16.8338 11.4966 16.7949 12.7266C16.6833 14.9944 15.4939 16.1839 13.2266 16.2949C12.0142 16.3336 10.8013 16.3512 9.58789 16.3477C8.35109 16.3509 7.11479 16.3333 5.87891 16.2949C3.45925 16.219 2.21121 14.971 2.13477 12.5508C2.11719 12.0938 2.09961 11.6367 2.08203 11.1797C2.10924 9.31655 2.12682 7.45327 2.13477 5.58984C2.15835 4.86257 2.29897 4.15944 2.55664 3.48047C2.93419 2.65569 3.56114 2.12249 4.4375 1.88086C5.18229 1.70515 5.93227 1.61726 6.6875 1.61719Z" fill="#CCCEE3"/>
<path opacity="0.962" fill-rule="evenodd" clip-rule="evenodd" d="M14.1234 3.07641C14.8799 3.06551 15.3018 3.43466 15.389 4.18383C15.3281 4.84828 14.9648 5.21742 14.2992 5.29125C13.4164 5.15305 13.0708 4.64916 13.262 3.77953C13.4337 3.3985 13.7209 3.16413 14.1234 3.07641Z" fill="#CCCEE3"/>
<path opacity="0.975" fill-rule="evenodd" clip-rule="evenodd" d="M9.09766 4.3422C11.2601 4.2863 12.8128 5.22382 13.7559 7.1547C14.4234 8.91491 14.1773 10.5321 13.0176 12.0063C11.4784 13.6032 9.66789 14.0075 7.58594 13.2192C5.84106 12.3439 4.927 10.9259 4.84375 8.96525C4.91132 7.21246 5.68476 5.87653 7.16406 4.95744C7.77142 4.62015 8.41594 4.41508 9.09766 4.3422ZM9.20312 5.99455C8.04132 6.16576 7.21514 6.78686 6.72461 7.85783C6.27422 9.16757 6.5496 10.2984 7.55078 11.2504C8.74799 12.1494 9.97846 12.1962 11.2422 11.391C12.2417 10.5841 12.6226 9.54702 12.3848 8.2797C11.882 6.74752 10.8214 5.98583 9.20312 5.99455Z" fill="#CCCEE3"/>
</g>
<defs>
<clipPath id="clip0_734_179">
<rect width="18" height="18" fill="white" transform="translate(0.5)"/>
</clipPath>
</defs>
</svg>
