<svg width="15" height="16" viewBox="0 0 15 16" fill="none" xmlns="http://www.w3.org/2000/svg">
<path opacity="0.977" fill-rule="evenodd" clip-rule="evenodd" d="M1.89828 0.797507C3.00398 0.714756 3.68953 1.20694 3.95493 2.27407C4.02654 3.31494 3.56367 3.97707 2.56625 4.2604C1.47601 4.36488 0.790462 3.89027 0.509613 2.83657C0.425913 1.77867 0.888805 1.09898 1.89828 0.797507Z" fill="#CCCEE3"/>
<path opacity="0.987" fill-rule="evenodd" clip-rule="evenodd" d="M11.0391 5.33237C11.8671 5.28674 12.6523 5.44494 13.3945 5.80698C13.9558 6.16933 14.3484 6.66739 14.5723 7.30112C14.7573 7.86053 14.8628 8.43477 14.8887 9.02378C14.9062 11.0863 14.9121 13.1487 14.9062 15.2113C13.8984 15.2113 12.8906 15.2113 11.8828 15.2113C11.8887 13.348 11.8828 11.4847 11.8652 9.62143C11.7572 8.30592 11.0599 7.78445 9.77344 8.05698C9.17842 8.26553 8.82098 8.68153 8.70117 9.30503C8.66911 9.45602 8.64566 9.60835 8.63086 9.76206C8.61328 11.5784 8.60741 13.3948 8.61328 15.2113C7.60546 15.2113 6.59767 15.2113 5.58984 15.2113C5.58984 12.0003 5.58984 8.78939 5.58984 5.57846C6.55077 5.57846 7.51173 5.57846 8.47266 5.57846C8.46679 6.01222 8.47266 6.4458 8.49023 6.87924C8.9222 6.1552 9.54914 5.68059 10.3711 5.45542C10.5974 5.40655 10.8201 5.36552 11.0391 5.33237Z" fill="#CCCEE3"/>
<path opacity="0.986" fill-rule="evenodd" clip-rule="evenodd" d="M0.703125 5.57861C1.71094 5.57861 2.71874 5.57861 3.72656 5.57861C3.72656 8.78954 3.72656 12.0005 3.72656 15.2114C2.71874 15.2114 1.71094 15.2114 0.703125 15.2114C0.703125 12.0005 0.703125 8.78954 0.703125 5.57861Z" fill="#CCCEE3"/>
</svg>
