<svg width="160" height="161" viewBox="0 0 160 161" fill="none" xmlns="http://www.w3.org/2000/svg">
<g filter="url(#filter0_d_305_9786)">
<rect x="35" y="35.5" width="90" height="90" rx="45" fill="#FAFAFC" shape-rendering="crispEdges"/>
<rect x="35.5" y="36" width="89" height="89" rx="44.5" stroke="url(#paint0_linear_305_9786)" shape-rendering="crispEdges"/>
<g clip-path="url(#clip0_305_9786)">
<path opacity="0.99" fill-rule="evenodd" clip-rule="evenodd" d="M78.6004 62.9658C79.5118 62.9658 80.4233 62.9658 81.3348 62.9658C87.0567 63.8453 90.8278 67.0354 92.6482 72.5361C93.4092 75.5861 93.2041 78.5711 92.033 81.4912C90.8164 84.4499 89.2669 87.207 87.3846 89.7627C85.2146 92.6737 82.8335 95.4081 80.241 97.9658C80.0587 97.9658 79.8765 97.9658 79.6941 97.9658C75.6542 94.0983 72.2477 89.7461 69.4744 84.9092C68.131 82.5422 67.2651 80.0129 66.8768 77.3213C66.564 72.5599 68.2388 68.6747 71.9012 65.666C73.897 64.1782 76.1301 63.2782 78.6004 62.9658ZM80.0359 70.0752C83.23 70.3639 85.1782 72.0729 85.8807 75.2021C86.1294 78.158 84.9331 80.2886 82.2918 81.5938C79.2407 82.6351 76.7684 81.849 74.8748 79.2354C73.7355 77.139 73.7355 75.0427 74.8748 72.9463C76.1138 71.1248 77.8342 70.1678 80.0359 70.0752Z" fill="url(#paint1_linear_305_9786)"/>
</g>
</g>
<defs>
<filter id="filter0_d_305_9786" x="0" y="0.5" width="160" height="160" filterUnits="userSpaceOnUse" color-interpolation-filters="sRGB">
<feFlood flood-opacity="0" result="BackgroundImageFix"/>
<feColorMatrix in="SourceAlpha" type="matrix" values="0 0 0 0 0 0 0 0 0 0 0 0 0 0 0 0 0 0 127 0" result="hardAlpha"/>
<feOffset/>
<feGaussianBlur stdDeviation="17.5"/>
<feComposite in2="hardAlpha" operator="out"/>
<feColorMatrix type="matrix" values="0 0 0 0 0.835294 0 0 0 0 0.290196 0 0 0 0 0.458824 0 0 0 0.07 0"/>
<feBlend mode="normal" in2="BackgroundImageFix" result="effect1_dropShadow_305_9786"/>
<feBlend mode="normal" in="SourceGraphic" in2="effect1_dropShadow_305_9786" result="shape"/>
</filter>
<linearGradient id="paint0_linear_305_9786" x1="79.9994" y1="35.501" x2="79.9994" y2="125.494" gradientUnits="userSpaceOnUse">
<stop stop-color="#3B5DA8"/>
<stop offset="1" stop-color="#E9476E"/>
</linearGradient>
<linearGradient id="paint1_linear_305_9786" x1="90.0006" y1="65.5838" x2="60.4883" y2="80.7601" gradientUnits="userSpaceOnUse">
<stop stop-color="#3B5DA8"/>
<stop offset="1" stop-color="#E9476E"/>
</linearGradient>
<clipPath id="clip0_305_9786">
<rect width="35" height="35" fill="white" transform="translate(62.5 63)"/>
</clipPath>
</defs>
</svg>
