<svg width="70" height="71" viewBox="0 0 70 71" fill="none" xmlns="http://www.w3.org/2000/svg">
<g clip-path="url(#clip0_734_456)">
<path opacity="0.987" fill-rule="evenodd" clip-rule="evenodd" d="M13.1952 0.431641C26.5025 0.431641 39.8099 0.431641 53.1171 0.431641C57.7463 1.57589 60.23 4.53814 60.5683 9.31836C60.6822 16.5649 60.6595 23.811 60.4999 31.0566C59.2783 31.3257 58.1846 31.8497 57.2187 32.6289C50.5878 39.2598 43.957 45.8906 37.3261 52.5215C37.0327 52.8805 36.8505 53.2907 36.7792 53.752C36.22 56.4571 35.6959 59.1686 35.207 61.8867C35.3431 63.0971 36.0267 63.7579 37.2577 63.8691C40.2337 63.315 43.196 62.6998 46.1445 62.0234C50.9068 57.2611 55.6692 52.4987 60.4316 47.7363C60.5903 50.0403 60.6587 52.3645 60.6366 54.709C60.6138 56.9877 60.5911 59.2662 60.5683 61.5449C60.1987 66.3011 57.7151 69.2632 53.1171 70.4316C39.8099 70.4316 26.5025 70.4316 13.1952 70.4316C9.47549 69.5603 7.08291 67.2816 6.01751 63.5957C5.85936 54.2117 5.791 44.8238 5.81243 35.4316C5.791 26.0395 5.85936 16.6515 6.01751 7.26758C7.06163 3.55711 9.4542 1.27847 13.1952 0.431641ZM17.1601 12.0527C18.1182 12.03 19.0752 12.0528 20.0312 12.1211C21.5365 12.6936 21.9694 13.719 21.33 15.1973C21.0429 15.6029 20.6554 15.8535 20.1679 15.9492C19.1197 16.0404 18.0716 16.0404 17.0234 15.9492C15.9206 15.5294 15.4421 14.7319 15.5878 13.5566C15.8763 12.7897 16.4005 12.2884 17.1601 12.0527ZM26.8671 12.0527C34.3413 12.0299 41.8151 12.0527 49.289 12.1211C50.7647 12.7268 51.1522 13.7522 50.4511 15.1973C50.1861 15.5536 49.8443 15.8042 49.4257 15.9492C41.815 16.0404 34.2044 16.0404 26.5937 15.9492C25.2201 15.2742 24.8783 14.2488 25.5683 12.873C25.957 12.509 26.3898 12.2356 26.8671 12.0527ZM17.0234 20.9395C18.1636 20.9168 19.3029 20.9395 20.4413 21.0078C21.9171 21.6135 22.3045 22.6389 21.6034 24.084C21.2697 24.4215 20.8824 24.6721 20.4413 24.8359C19.3476 24.9271 18.2538 24.9271 17.1601 24.8359C15.5531 24.1981 15.1658 23.1272 15.998 21.623C16.2947 21.3054 16.6365 21.0775 17.0234 20.9395ZM26.7304 20.9395C34.2501 20.9166 41.7696 20.9395 49.289 21.0078C50.7647 21.6135 51.1522 22.6389 50.4511 24.084C50.1174 24.4215 49.73 24.6721 49.289 24.8359C41.7695 24.9271 34.2499 24.9271 26.7304 24.8359C25.2938 24.2184 24.9064 23.193 25.5683 21.7598C25.8857 21.364 26.2731 21.0905 26.7304 20.9395ZM16.8866 29.8262C27.7331 29.8033 38.5794 29.8262 49.4257 29.8945C50.8723 30.6334 51.1685 31.7043 50.3144 33.1074C49.9443 33.4405 49.5114 33.6455 49.0156 33.7227C38.4427 33.8138 27.8697 33.8138 17.2968 33.7227C15.6916 33.2239 15.2131 32.1985 15.8613 30.6465C16.1503 30.2881 16.4921 30.0147 16.8866 29.8262ZM17.1601 38.5762C18.2093 38.5535 19.2575 38.5762 20.3046 38.6445C21.8539 39.1894 22.2868 40.2147 21.6034 41.7207C21.3385 42.077 20.9967 42.3276 20.5781 42.4727C19.3476 42.5638 18.1171 42.5638 16.8866 42.4727C15.5926 41.8264 15.2508 40.8465 15.8613 39.5332C16.207 39.0704 16.64 38.7514 17.1601 38.5762ZM26.8671 38.5762C30.2854 38.5533 33.7033 38.5762 37.121 38.6445C38.4685 39.0372 38.9926 39.9259 38.6933 41.3105C38.3862 41.8458 37.9534 42.2331 37.3945 42.4727C33.7942 42.5638 30.1939 42.5638 26.5937 42.4727C25.1468 41.7219 24.8505 40.651 25.705 39.2598C26.0717 38.9747 26.4591 38.7468 26.8671 38.5762Z" fill="url(#paint0_linear_734_456)"/>
<path opacity="0.961" fill-rule="evenodd" clip-rule="evenodd" d="M60.7695 35.0214C62.7291 34.773 63.8229 35.6161 64.0508 37.5507C64.0703 38.1275 63.9108 38.6516 63.5723 39.123C57.1237 45.5716 50.6752 52.0201 44.2266 58.4687C42.7645 58.7565 41.3063 59.0527 39.8516 59.3573C40 57.8595 40.2506 56.3555 40.6035 54.8456C47.0977 48.3515 53.5918 41.8573 60.0859 35.3632C60.3341 35.2597 60.5619 35.1458 60.7695 35.0214Z" fill="url(#paint1_linear_734_456)"/>
</g>
<defs>
<linearGradient id="paint0_linear_734_456" x1="54.1731" y1="5.66752" x2="-6.3143" y2="38.1443" gradientUnits="userSpaceOnUse">
<stop stop-color="#3B5DA8"/>
<stop offset="1" stop-color="#E9476E"/>
</linearGradient>
<linearGradient id="paint1_linear_734_456" x1="61.1978" y1="36.8025" x2="37.6895" y2="52.7988" gradientUnits="userSpaceOnUse">
<stop stop-color="#3B5DA8"/>
<stop offset="1" stop-color="#E9476E"/>
</linearGradient>
<clipPath id="clip0_734_456">
<rect width="70" height="70" fill="white" transform="translate(0 0.5)"/>
</clipPath>
</defs>
</svg>
