<svg width="19" height="18" viewBox="0 0 19 18" fill="none" xmlns="http://www.w3.org/2000/svg">
<path opacity="0.995" fill-rule="evenodd" clip-rule="evenodd" d="M8.89542 0.549459C10.7386 0.374896 12.2034 1.03182 13.2897 2.52024C13.9758 3.4619 14.2866 4.51834 14.2219 5.68946C14.1895 6.33715 14.1717 6.98522 14.1686 7.63361C14.7712 7.57411 15.3749 7.54748 15.9796 7.55371C16.3462 7.6971 16.4617 7.95452 16.3258 8.32604C16.2459 8.40594 16.166 8.48584 16.0861 8.56573C15.6485 8.77565 15.2046 8.97097 14.7545 9.15164C14.387 9.45881 14.2717 9.84051 14.4083 10.2968C14.8172 11.2468 15.4475 12.0191 16.2992 12.6138C16.8204 12.83 17.3353 13.0608 17.8438 13.3063C18.2849 13.6615 18.2494 13.9811 17.7373 14.265C17.2688 14.4191 16.7894 14.5256 16.2992 14.5846C16.1422 14.6275 16.0002 14.6985 15.873 14.7977C15.6732 15.1264 15.4601 15.446 15.2339 15.7564C15.0426 15.8178 14.8473 15.8621 14.648 15.8896C13.6959 15.7311 12.7904 15.8642 11.9315 16.2891C11.5025 16.6292 11.0586 16.9488 10.5999 17.2478C9.57423 17.6143 8.57994 17.5433 7.61708 17.0348C7.23449 16.7457 6.86164 16.4438 6.49853 16.1293C6.12941 15.8523 5.71219 15.7014 5.24682 15.6765C4.65255 15.7493 4.06665 15.8558 3.4891 15.9961C3.25857 15.9844 3.06331 15.8956 2.90319 15.7298C2.79107 15.5123 2.72007 15.2815 2.69014 15.0373C2.6431 14.8987 2.56321 14.7833 2.45045 14.6911C1.96223 14.5224 1.46511 14.3803 0.959048 14.265C0.484335 14.081 0.377807 13.7791 0.639462 13.3595C1.14648 13.0885 1.67913 12.8754 2.23739 12.7203C3.32031 12.0712 3.97727 11.1214 4.20817 9.87071C4.20939 9.49152 4.0496 9.19856 3.72879 8.99185C3.29692 8.82033 2.8886 8.60728 2.50371 8.35267C2.13012 7.94483 2.20112 7.62524 2.71677 7.39392C3.30917 7.31913 3.89508 7.36356 4.47449 7.52708C4.50991 6.77967 4.47438 6.03397 4.36796 5.28998C4.46016 3.05837 5.56092 1.57586 7.67035 0.842412C8.08016 0.719888 8.48849 0.622234 8.89542 0.549459Z" fill="#CCCEE3"/>
</svg>
