<svg width="150" height="150" viewBox="0 0 150 150" fill="none" xmlns="http://www.w3.org/2000/svg">
<g clip-path="url(#clip0_261_1516)">
<path opacity="0.958" fill-rule="evenodd" clip-rule="evenodd" d="M73.9745 7.17769C75.5299 6.90391 76.5553 7.48985 77.0507 8.93551C77.2461 23.4863 77.2461 38.037 77.0507 52.5878C76.9144 53.0071 76.6701 53.3487 76.3183 53.6132C63.8287 53.9956 56.358 60.2944 53.9061 72.5097C53.438 82.5624 57.686 89.838 66.6503 94.3359C76.1363 97.6895 84.2908 95.6874 91.1132 88.33C94.4281 83.8054 96.137 78.7274 96.2401 73.0957C96.4968 72.8756 96.7897 72.7292 97.119 72.6562C100.049 72.4608 102.978 72.4608 105.908 72.6562C106.279 72.7467 106.621 72.8932 106.933 73.0957C107.24 88.456 100.355 99.1494 86.2792 105.176C71.174 109.742 58.6253 105.982 48.6327 93.8964C42.287 84.4356 40.9197 74.2795 44.5311 63.4277C49.6563 51.2639 58.7873 44.2816 71.9237 42.4804C72.0702 42.3339 72.2167 42.1875 72.3632 42.041C72.4607 31.0057 72.5586 19.9707 72.6561 8.93551C72.8316 8.12861 73.2711 7.54267 73.9745 7.17769Z" fill="url(#paint0_linear_261_1516)"/>
<path opacity="0.96" fill-rule="evenodd" clip-rule="evenodd" d="M115.87 17.7245C117.02 17.5917 117.948 17.9823 118.653 18.8964C118.663 23.1229 118.858 27.3222 119.239 31.494C123.27 31.7354 127.323 31.8819 131.397 31.9335C132.743 32.7468 133.084 33.8697 132.423 35.3026C126.018 41.8051 119.524 48.2017 112.94 54.4921C108.128 54.5006 103.343 54.696 98.5848 55.078C91.163 62.4998 83.741 69.9219 76.3192 77.3436C73.2161 78.439 72.0931 77.4137 72.95 74.2675C80.4697 66.7478 87.989 59.2285 95.5086 51.7089C95.5171 46.8969 95.7125 42.1118 96.0946 37.3534C102.656 30.7434 109.247 24.2005 115.87 17.7245Z" fill="url(#paint1_linear_261_1516)"/>
<path opacity="0.976" fill-rule="evenodd" clip-rule="evenodd" d="M61.3787 21.8263C62.0923 21.7727 62.7272 21.968 63.283 22.4122C63.4784 28.3692 63.4784 34.3264 63.283 40.2833C47.2954 47.055 38.9458 59.1643 38.2341 76.6114C37.9037 76.8347 37.5618 77.0301 37.2087 77.1974C27.6106 76.9542 17.9914 76.8077 8.35132 76.7579C6.74395 75.2694 6.84162 73.9021 8.64429 72.6564C12.7459 72.5588 16.8474 72.461 20.949 72.3634C22.5913 53.8457 30.9896 39.2951 46.1443 28.7111C50.9528 25.7599 56.0308 23.465 61.3787 21.8263Z" fill="url(#paint2_linear_261_1516)"/>
<path opacity="0.957" fill-rule="evenodd" clip-rule="evenodd" d="M72.8021 57.5685C73.9781 57.5198 75.1499 57.5688 76.3177 57.715C76.4642 57.8614 76.6107 58.0079 76.7572 58.1544C77.3431 60.0098 77.3431 61.8655 76.7572 63.7208C74.218 66.26 71.6791 68.7989 69.14 71.338C66.7775 74.88 67.1191 78.1516 70.1654 81.1525C73.3072 83.6679 76.4323 83.6679 79.5404 81.1525C82.3725 78.3203 85.2043 75.4885 88.0365 72.6564C89.3419 72.4024 90.6114 72.4999 91.8451 72.9493C92.666 80.2932 89.9314 85.9572 83.6419 89.9415C75.67 93.7369 68.4922 92.614 62.1087 86.5724C58.4238 82.2523 57.0568 77.2718 58.0072 71.631C59.975 63.7926 64.9069 59.1051 72.8021 57.5685Z" fill="url(#paint3_linear_261_1516)"/>
<path opacity="0.973" fill-rule="evenodd" clip-rule="evenodd" d="M112.352 72.5098C121.923 72.4609 131.493 72.5098 141.063 72.6563C142.447 73.3697 142.887 74.4929 142.381 76.0254C142.137 76.2695 141.893 76.5138 141.649 76.7579C137.325 76.7675 133.028 76.9626 128.758 77.3438C126.752 98.9579 116.107 114.583 96.8248 124.219C94.428 125.213 91.9867 126.092 89.5006 126.856C88.1544 127.264 86.7874 127.361 85.399 127.148C85.0595 121.457 85.0106 115.744 85.2526 110.01C87.594 108.766 89.9863 107.545 92.4303 106.348C104.745 98.7674 111.044 87.6835 111.327 73.0957C111.708 72.9244 112.05 72.7292 112.352 72.5098Z" fill="url(#paint4_linear_261_1516)"/>
<path opacity="0.968" fill-rule="evenodd" clip-rule="evenodd" d="M23.584 85.1075C28.956 85.0585 34.3271 85.1075 39.6973 85.2539C46.4077 101.874 58.7613 110.614 76.7578 111.475C77.2418 121.118 77.3394 130.786 77.0508 140.479C76.4707 142.062 75.3475 142.599 73.6816 142.09C73.2278 141.734 72.8862 141.295 72.6562 140.772C72.6047 136.794 72.4582 132.839 72.2168 128.906C51.0899 126.809 35.8066 116.311 26.3672 97.4122C24.5101 93.6997 23.4359 89.7935 23.1445 85.6934C23.3546 85.534 23.5011 85.3386 23.584 85.1075Z" fill="url(#paint5_linear_261_1516)"/>
<ellipse opacity="0.1" cx="68.2895" cy="9.07895" rx="68.2895" ry="9.07895" transform="matrix(1 0 0 -1 7.10547 151.158)" fill="url(#paint6_linear_261_1516)"/>
</g>
<defs>
<linearGradient id="paint0_linear_261_1516" x1="99.3498" y1="14.5878" x2="22.7861" y2="48.3925" gradientUnits="userSpaceOnUse">
<stop stop-color="#3B5DA8"/>
<stop offset="1" stop-color="#E9476E"/>
</linearGradient>
<linearGradient id="paint1_linear_261_1516" x1="125.664" y1="22.1923" x2="67.581" y2="62.0107" gradientUnits="userSpaceOnUse">
<stop stop-color="#3B5DA8"/>
<stop offset="1" stop-color="#E9476E"/>
</linearGradient>
<linearGradient id="paint2_linear_261_1516" x1="56.7988" y1="25.9599" x2="2.9687" y2="63.4137" gradientUnits="userSpaceOnUse">
<stop stop-color="#3B5DA8"/>
<stop offset="1" stop-color="#E9476E"/>
</linearGradient>
<linearGradient id="paint3_linear_261_1516" x1="87.9447" y1="60.1374" x2="54.6139" y2="82.7754" gradientUnits="userSpaceOnUse">
<stop stop-color="#3B5DA8"/>
<stop offset="1" stop-color="#E9476E"/>
</linearGradient>
<linearGradient id="paint4_linear_261_1516" x1="135.804" y1="76.5879" x2="81.9741" y2="115.315" gradientUnits="userSpaceOnUse">
<stop stop-color="#3B5DA8"/>
<stop offset="1" stop-color="#E9476E"/>
</linearGradient>
<linearGradient id="paint5_linear_261_1516" x1="70.835" y1="89.3666" x2="16.7225" y2="124.435" gradientUnits="userSpaceOnUse">
<stop stop-color="#3B5DA8"/>
<stop offset="1" stop-color="#E9476E"/>
</linearGradient>
<linearGradient id="paint6_linear_261_1516" x1="120.469" y1="1.35818" x2="113.432" y2="37.6406" gradientUnits="userSpaceOnUse">
<stop stop-color="#3B5DA8"/>
<stop offset="1" stop-color="#E9476E"/>
</linearGradient>
<clipPath id="clip0_261_1516">
<rect width="150" height="150" fill="white"/>
</clipPath>
</defs>
</svg>
