<svg width="17" height="18" viewBox="0 0 17 18" fill="none" xmlns="http://www.w3.org/2000/svg">
<path opacity="0.986" fill-rule="evenodd" clip-rule="evenodd" d="M9.13313 0C10.1292 0 11.1253 0 12.1214 0C12.2368 2.08959 13.268 3.51342 15.2152 4.27148C15.6849 4.41619 16.1653 4.49234 16.6566 4.5C16.6566 5.48438 16.6566 6.46875 16.6566 7.45312C14.9774 7.45003 13.4715 6.94614 12.139 5.94141C12.1273 8.26172 12.1155 10.582 12.1038 12.9023C11.8889 14.8041 10.9689 16.2514 9.34407 17.2441C8.59531 17.6637 7.79843 17.9157 6.95345 18C6.62533 18 6.29718 18 5.96907 18C3.53264 17.6672 1.89785 16.343 1.06477 14.0273C0.469755 11.6056 1.12015 9.59579 3.01595 7.99805C4.30695 7.06296 5.74836 6.69382 7.34017 6.89062C7.34017 7.89845 7.34017 8.90624 7.34017 9.91406C5.86097 9.56102 4.76525 10.0532 4.05306 11.3906C3.61473 12.6437 3.90185 13.6925 4.91438 14.5371C5.72424 15.0937 6.59141 15.1992 7.51595 14.8535C8.43774 14.4227 8.97096 13.702 9.11556 12.6914C9.13313 8.46095 9.139 4.23049 9.13313 0Z" fill="#CCCEE3"/>
</svg>
