<svg width="150" height="150" viewBox="0 0 150 150" fill="none" xmlns="http://www.w3.org/2000/svg">
<path opacity="0.944" fill-rule="evenodd" clip-rule="evenodd" d="M76.6133 4.54102C76.9912 4.7044 77.2353 4.99737 77.3457 5.41992C78.5105 8.42698 79.7311 11.4055 81.0078 14.3555C84.6274 14.6419 88.2406 14.9837 91.8477 15.3809C89.213 17.7707 86.5273 20.1145 83.791 22.4121C84.3884 25.739 85.1208 29.0593 85.9883 32.373C85.8907 32.5685 85.7929 32.7636 85.6953 32.959C82.7413 31.0667 79.763 29.2114 76.7598 27.3926C73.7565 29.2114 70.7782 31.0667 67.8242 32.959C67.7267 32.7149 67.6288 32.4706 67.5312 32.2266C68.3853 28.9589 69.1177 25.6874 69.7285 22.4121C67.0429 20.1172 64.3575 17.8223 61.6719 15.5273C65.2396 15.004 68.8531 14.6134 72.5117 14.3555C73.8512 11.0686 75.2185 7.7971 76.6133 4.54102Z" fill="url(#paint0_linear_261_1628)"/>
<path opacity="0.944" fill-rule="evenodd" clip-rule="evenodd" d="M46.4336 21.5332C46.7925 21.7243 46.9879 22.0661 47.0195 22.5586C46.5871 25.8386 46.3917 29.1101 46.4336 32.373C49.4608 34.2773 52.4884 36.1816 55.5156 38.0859C51.9086 38.9634 48.2954 39.7934 44.6758 40.5762C44.0509 44.1396 43.2209 47.6552 42.1855 51.123C40.3056 48.2423 38.4988 45.3126 36.7656 42.334C33.1372 42.1562 29.5237 42.3513 25.9258 42.9199C25.8281 42.8224 25.7305 42.7245 25.6328 42.627C27.9215 39.801 30.2652 37.0178 32.6641 34.2773C31.1254 30.9621 29.807 27.5929 28.709 24.1699C31.9416 25.622 35.2129 26.9892 38.5234 28.2715C41.2516 26.1291 43.8883 23.883 46.4336 21.5332Z" fill="url(#paint1_linear_261_1628)"/>
<path opacity="0.944" fill-rule="evenodd" clip-rule="evenodd" d="M106.496 21.5332C109.451 23.6285 112.234 25.9723 114.846 28.5645C118.142 27.0427 121.462 25.5778 124.807 24.1699C123.711 27.5885 122.393 30.9577 120.852 34.2773C123.159 37.0822 125.503 39.8654 127.883 42.627C127.785 42.7245 127.687 42.8224 127.59 42.9199C123.995 42.319 120.381 42.1236 116.75 42.334C115.017 45.3126 113.21 48.2423 111.33 51.123C110.336 47.6836 109.408 44.2169 108.547 40.7227C105.059 39.7532 101.544 38.8743 98 38.0859C100.929 36.0352 103.956 34.1309 107.082 32.373C107.18 32.1776 107.277 31.9825 107.375 31.7871C106.969 28.3796 106.676 24.9617 106.496 21.5332Z" fill="url(#paint2_linear_261_1628)"/>
<path opacity="0.914" fill-rule="evenodd" clip-rule="evenodd" d="M58.7422 44.3847C63.9216 44.2872 69.0975 44.3847 74.2695 44.6777C71.7403 49.3051 69.1525 53.8948 66.5059 58.4472C63.8363 53.7908 61.2485 49.1033 58.7422 44.3847Z" fill="url(#paint3_linear_261_1628)"/>
<path opacity="0.914" fill-rule="evenodd" clip-rule="evenodd" d="M79.25 44.3848C84.4268 44.3359 89.6023 44.3848 94.7773 44.5313C92.2382 49.1212 89.6993 53.7109 87.1602 58.3008C86.9164 58.5024 86.7213 58.4535 86.5742 58.1543C84.0509 53.5952 81.6093 49.0052 79.25 44.3848Z" fill="url(#paint4_linear_261_1628)"/>
<path opacity="0.92" fill-rule="evenodd" clip-rule="evenodd" d="M54.6367 47.0214C54.9285 46.9963 55.1726 47.0941 55.3691 47.3144C57.8222 51.8789 60.3124 56.4199 62.8398 60.9375C57.6648 61.0839 52.4893 61.1329 47.3125 61.0839C49.7403 56.4044 52.1819 51.7169 54.6367 47.0214Z" fill="url(#paint5_linear_261_1628)"/>
<path opacity="0.921" fill-rule="evenodd" clip-rule="evenodd" d="M98.2891 47.0215C101.132 51.4313 103.769 56.0209 106.199 60.791C101.026 61.1326 95.8504 61.1815 90.6719 60.9375C93.2518 56.3145 95.7909 51.6756 98.2891 47.0215Z" fill="url(#paint6_linear_261_1628)"/>
<path opacity="0.905" fill-rule="evenodd" clip-rule="evenodd" d="M76.6133 49.3652C79.064 53.0936 81.2123 57 83.0586 61.084C78.8595 61.084 74.6601 61.084 70.4609 61.084C72.3526 57.1055 74.4034 53.1993 76.6133 49.3652Z" fill="url(#paint7_linear_261_1628)"/>
<path opacity="0.943" fill-rule="evenodd" clip-rule="evenodd" d="M19.4805 57.5683C19.7722 57.5431 20.0164 57.641 20.2129 57.8613C22.3125 60.3515 24.4121 62.8418 26.5117 65.332C30.1551 64.7871 33.7686 64.1036 37.3516 63.2812C35.4941 66.3134 33.6388 69.3407 31.7852 72.3632C33.5283 75.5077 35.3837 78.5838 37.3516 81.5918C33.8242 81.1019 30.3086 80.3209 26.8047 79.248C24.4609 81.9823 22.1172 84.7169 19.7734 87.4511C19.3265 83.8248 18.8383 80.2116 18.3086 76.6113C15.0496 75.3234 11.8269 73.9561 8.64062 72.5097C11.8206 71.0669 15.0432 69.6999 18.3086 68.4082C18.5374 68.0481 18.6839 67.6576 18.748 67.2363C18.9923 64.0116 19.2365 60.7889 19.4805 57.5683Z" fill="url(#paint8_linear_261_1628)"/>
<path opacity="0.943" fill-rule="evenodd" clip-rule="evenodd" d="M133.449 57.5684C133.815 57.8127 134.01 58.2032 134.035 58.7402C134.299 61.8753 134.592 65.0004 134.914 68.1152C138.234 69.5801 141.555 71.0449 144.875 72.5098C141.547 73.9764 138.227 75.4412 134.914 76.9043C134.606 80.4258 134.216 83.9414 133.742 87.4512C131.304 84.7676 128.911 82.0333 126.564 79.248C123.122 80.3417 119.655 81.1228 116.164 81.5918C118.093 78.6135 119.949 75.5859 121.73 72.5098C119.949 69.4336 118.093 66.4061 116.164 63.4277C116.311 63.3302 116.457 63.2323 116.604 63.1348C120.025 64.1704 123.492 64.9028 127.004 65.332C129.214 62.7812 131.363 60.1934 133.449 57.5684Z" fill="url(#paint9_linear_261_1628)"/>
<path opacity="0.944" fill-rule="evenodd" clip-rule="evenodd" d="M47.8984 65.7714C53.3163 65.4793 58.7849 65.3818 64.3047 65.4785C66.7929 75.2378 69.4296 84.9547 72.2148 94.6289C72.1173 94.6778 72.0194 94.7264 71.9219 94.7753C63.8986 85.0945 55.8906 75.4265 47.8984 65.7714Z" fill="url(#paint10_linear_261_1628)"/>
<path opacity="0.952" fill-rule="evenodd" clip-rule="evenodd" d="M68.7031 65.4786C74.075 65.4296 79.4463 65.4786 84.8164 65.625C82.192 75.1588 79.5066 84.6803 76.7598 94.1895C73.8942 84.6824 71.2089 75.112 68.7031 65.4786Z" fill="url(#paint11_linear_261_1628)"/>
<path opacity="0.945" fill-rule="evenodd" clip-rule="evenodd" d="M89.209 65.4786C94.6787 65.4296 100.147 65.4786 105.615 65.625C97.669 75.4272 89.6124 85.1441 81.4453 94.7754C83.9358 85.0052 86.5236 75.2394 89.209 65.4786Z" fill="url(#paint12_linear_261_1628)"/>
<path opacity="0.976" fill-rule="evenodd" clip-rule="evenodd" d="M42.9219 97.705C45.3099 97.5612 47.6536 97.8052 49.9531 98.4375C58.2693 101.665 66.7654 104.302 75.4414 106.348C77.8774 108.176 78.4145 110.471 77.0527 113.232C76.4782 114.004 75.7458 114.542 74.8555 114.844C73.0807 115.06 71.3229 114.963 69.582 114.551C64.8181 113.299 60.0816 111.981 55.373 110.596C52.5723 112.04 52.5236 113.553 55.2266 115.137C62.5678 117.424 70.0385 119.133 77.6387 120.264C80.1222 120.119 82.5145 119.582 84.8164 118.652C93.4859 113.789 102.08 108.808 110.598 103.711C113.737 101.704 117.155 100.483 120.852 100.049C125.326 100.28 127.133 102.624 126.271 107.08C125.921 108.025 125.383 108.855 124.66 109.57C109.67 118.676 94.7284 127.856 79.8359 137.109C76.8163 138.787 73.5937 139.373 70.168 138.867C58.5685 135.857 46.9962 132.781 35.4512 129.639C31.3827 122.625 27.4275 115.545 23.5859 108.398C28.3632 105.325 33.246 102.395 38.2344 99.6093C39.7927 98.876 41.3551 98.2415 42.9219 97.705Z" fill="url(#paint13_linear_261_1628)"/>
<path opacity="0.961" fill-rule="evenodd" clip-rule="evenodd" d="M13.332 104.15C15.0869 104.033 16.4052 104.716 17.2871 106.201C23.0488 116.358 28.8105 126.514 34.5723 136.67C35.4063 138.555 35.0647 140.166 33.5469 141.504C31.3985 142.676 29.25 143.848 27.1016 145.02C25.3794 145.504 23.9634 145.064 22.8535 143.701C16.9941 133.35 11.1348 122.998 5.27538 112.646C4.50476 110.871 4.84656 109.357 6.30077 108.105C8.62475 106.701 10.9685 105.382 13.332 104.15ZM12.1601 110.889C14.2922 110.531 15.2199 111.41 14.9434 113.525C13.7571 115.083 12.5852 115.083 11.4277 113.525C11.1134 112.471 11.3576 111.592 12.1601 110.889Z" fill="url(#paint14_linear_261_1628)"/>
<ellipse opacity="0.1" cx="68.2895" cy="9.07895" rx="68.2895" ry="9.07895" transform="matrix(1 0 0 -1 7.10547 149.158)" fill="url(#paint15_linear_261_1628)"/>
<defs>
<linearGradient id="paint0_linear_261_1628" x1="88.2883" y1="6.66663" x2="60.2548" y2="27.0706" gradientUnits="userSpaceOnUse">
<stop stop-color="#3B5DA8"/>
<stop offset="1" stop-color="#E9476E"/>
</linearGradient>
<linearGradient id="paint1_linear_261_1628" x1="51.9909" y1="23.7465" x2="23.2804" y2="43.6207" gradientUnits="userSpaceOnUse">
<stop stop-color="#3B5DA8"/>
<stop offset="1" stop-color="#E9476E"/>
</linearGradient>
<linearGradient id="paint2_linear_261_1628" x1="124.358" y1="23.7465" x2="95.6476" y2="43.6207" gradientUnits="userSpaceOnUse">
<stop stop-color="#3B5DA8"/>
<stop offset="1" stop-color="#E9476E"/>
</linearGradient>
<linearGradient id="paint3_linear_261_1628" x1="72.438" y1="45.4027" x2="58.3814" y2="56.0138" gradientUnits="userSpaceOnUse">
<stop stop-color="#3B5DA8"/>
<stop offset="1" stop-color="#E9476E"/>
</linearGradient>
<linearGradient id="paint4_linear_261_1628" x1="92.9459" y1="45.4178" x2="78.9204" y2="56.0377" gradientUnits="userSpaceOnUse">
<stop stop-color="#3B5DA8"/>
<stop offset="1" stop-color="#E9476E"/>
</linearGradient>
<linearGradient id="paint5_linear_261_1628" x1="61.0084" y1="48.0711" x2="46.9621" y2="58.6851" gradientUnits="userSpaceOnUse">
<stop stop-color="#3B5DA8"/>
<stop offset="1" stop-color="#E9476E"/>
</linearGradient>
<linearGradient id="paint6_linear_261_1628" x1="104.368" y1="48.0738" x2="90.3333" y2="58.6911" gradientUnits="userSpaceOnUse">
<stop stop-color="#3B5DA8"/>
<stop offset="1" stop-color="#E9476E"/>
</linearGradient>
<linearGradient id="paint7_linear_261_1628" x1="81.5727" y1="50.2418" x2="69.9694" y2="58.7916" gradientUnits="userSpaceOnUse">
<stop stop-color="#3B5DA8"/>
<stop offset="1" stop-color="#E9476E"/>
</linearGradient>
<linearGradient id="paint8_linear_261_1628" x1="33.965" y1="59.7999" x2="5.50324" y2="78.5414" gradientUnits="userSpaceOnUse">
<stop stop-color="#3B5DA8"/>
<stop offset="1" stop-color="#E9476E"/>
</linearGradient>
<linearGradient id="paint9_linear_261_1628" x1="141.488" y1="59.8035" x2="113.029" y2="78.546" gradientUnits="userSpaceOnUse">
<stop stop-color="#3B5DA8"/>
<stop offset="1" stop-color="#E9476E"/>
</linearGradient>
<linearGradient id="paint10_linear_261_1628" x1="69.3467" y1="67.6364" x2="43.2237" y2="82.48" gradientUnits="userSpaceOnUse">
<stop stop-color="#3B5DA8"/>
<stop offset="1" stop-color="#E9476E"/>
</linearGradient>
<linearGradient id="paint11_linear_261_1628" x1="82.9158" y1="67.6091" x2="62.965" y2="75.279" gradientUnits="userSpaceOnUse">
<stop stop-color="#3B5DA8"/>
<stop offset="1" stop-color="#E9476E"/>
</linearGradient>
<linearGradient id="paint12_linear_261_1628" x1="102.764" y1="67.6529" x2="76.73" y2="82.3659" gradientUnits="userSpaceOnUse">
<stop stop-color="#3B5DA8"/>
<stop offset="1" stop-color="#E9476E"/>
</linearGradient>
<linearGradient id="paint13_linear_261_1628" x1="114.344" y1="100.76" x2="76.8995" y2="164.583" gradientUnits="userSpaceOnUse">
<stop stop-color="#3B5DA8"/>
<stop offset="1" stop-color="#E9476E"/>
</linearGradient>
<linearGradient id="paint14_linear_261_1628" x1="31.4608" y1="107.21" x2="-2.72456" y2="124.405" gradientUnits="userSpaceOnUse">
<stop stop-color="#3B5DA8"/>
<stop offset="1" stop-color="#E9476E"/>
</linearGradient>
<linearGradient id="paint15_linear_261_1628" x1="120.469" y1="1.35818" x2="113.432" y2="37.6406" gradientUnits="userSpaceOnUse">
<stop stop-color="#3B5DA8"/>
<stop offset="1" stop-color="#E9476E"/>
</linearGradient>
</defs>
</svg>
