<svg width="70" height="71" viewBox="0 0 70 71" fill="none" xmlns="http://www.w3.org/2000/svg">
<path opacity="0.969" fill-rule="evenodd" clip-rule="evenodd" d="M5.26252 1.38858C19.714 1.32169 34.1606 1.39005 48.6024 1.59366C49.9345 2.05984 50.8687 2.94851 51.4051 4.25967C51.6042 7.21463 51.6725 10.1769 51.6102 13.1464C49.1033 13.1236 46.5967 13.1464 44.0906 13.2148C43.3842 13.3743 42.9514 13.8072 42.7918 14.5136C42.7006 19.481 42.7006 24.4485 42.7918 29.4159C42.9369 29.8346 43.1875 30.1764 43.5438 30.4413C46.2233 30.6413 48.9122 30.7097 51.6102 30.6464C51.633 33.4267 51.6102 36.2066 51.5418 38.9862C51.5068 39.5774 51.2562 40.0331 50.7899 40.3534C46.4637 39.1921 42.1343 38.0529 37.8016 36.9355C37.8243 36.0684 37.8016 35.2025 37.7332 34.3378C37.6821 34.2126 37.6137 34.0985 37.5281 33.996C36.2977 33.9048 35.0672 33.9048 33.8367 33.996C33.589 34.5322 33.4978 35.1019 33.5633 35.705C32.0561 35.3395 30.5522 34.9522 29.0516 34.5429C28.744 34.4593 28.5161 34.2771 28.368 33.996C26.5767 33.8617 24.8222 33.52 23.1043 32.9706C20.925 33.4117 20.1502 34.6878 20.7801 36.7987C20.9361 37.0871 21.1412 37.3377 21.3953 37.5507C24.2209 39.1458 27.0463 40.7408 29.8719 42.3359C21.532 42.427 13.1922 42.427 4.85236 42.3359C3.19894 41.9128 2.12798 40.8875 1.63947 39.2597C1.44407 36.3941 1.37571 33.523 1.43439 30.6464C4.03244 30.6692 6.6301 30.6464 9.22736 30.578C9.75144 30.4185 10.0932 30.0767 10.2528 29.5526C10.3439 24.4485 10.3439 19.3443 10.2528 14.2401C9.99412 13.7537 9.60674 13.4119 9.09064 13.2148C6.53896 13.1464 3.98688 13.1236 1.43439 13.1464C1.3775 10.2704 1.44586 7.39933 1.63947 4.53311C2.20993 2.73499 3.41761 1.68681 5.26252 1.38858ZM6.6297 5.76358C7.7244 5.74083 8.81815 5.76362 9.91095 5.83194C10.0362 5.8831 10.1502 5.95146 10.2528 6.03702C10.3644 7.30094 10.3417 8.55419 10.1844 9.79678C9.56157 9.94846 8.92354 10.0168 8.27033 10.0019C7.72345 9.97907 7.17658 9.9563 6.6297 9.9335C6.51922 9.89145 6.42808 9.82309 6.35627 9.72843C6.20076 8.55016 6.17797 7.36526 6.28791 6.17374C6.38332 6.01096 6.49726 5.87424 6.6297 5.76358ZM15.7899 5.76358C16.8846 5.74083 17.9783 5.76362 19.0711 5.83194C19.1816 5.874 19.2728 5.94235 19.3445 6.03702C19.5254 7.29437 19.5254 8.54763 19.3445 9.79678C18.7217 9.94846 18.0837 10.0168 17.4305 10.0019C16.8836 9.97907 16.3367 9.9563 15.7899 9.9335C15.6646 9.88234 15.5506 9.81398 15.4481 9.72843C15.3569 8.49796 15.3569 7.26749 15.4481 6.03702C15.5841 5.95965 15.698 5.8685 15.7899 5.76358ZM24.95 5.76358C26.0447 5.74083 27.1385 5.76362 28.2313 5.83194C28.3452 5.94587 28.4592 6.05981 28.5731 6.17374C28.6643 7.31306 28.6643 8.45239 28.5731 9.59171C28.531 9.70219 28.4626 9.79333 28.368 9.86514C27.2353 10.0205 26.096 10.0433 24.95 9.9335C24.8248 9.88234 24.7108 9.81398 24.6082 9.72843C24.3938 8.64545 24.3483 7.5517 24.4715 6.44718C24.5066 6.11816 24.6662 5.89029 24.95 5.76358ZM34.1102 5.76358C35.2049 5.74083 36.2986 5.76362 37.3914 5.83194C37.5053 5.94587 37.6193 6.05981 37.7332 6.17374C37.8244 7.31306 37.8244 8.45239 37.7332 9.59171C37.6193 9.70563 37.5053 9.81958 37.3914 9.9335C36.2521 10.0247 35.1127 10.0247 33.9735 9.9335C33.9051 9.86514 33.8367 9.79678 33.7684 9.72843C33.5491 8.60328 33.5036 7.46397 33.6317 6.31046C33.726 6.0575 33.8854 5.8752 34.1102 5.76358ZM43.1336 5.76358C44.2738 5.74083 45.4131 5.76362 46.5516 5.83194C46.6199 5.9003 46.6883 5.96866 46.7567 6.03702C46.976 7.16216 47.0215 8.30148 46.8934 9.45499C46.8298 9.65061 46.7158 9.81011 46.5516 9.9335C45.4123 10.0247 44.2729 10.0247 43.1336 9.9335C43.0197 9.81958 42.9057 9.70563 42.7918 9.59171C42.7006 8.45239 42.7006 7.31306 42.7918 6.17374C42.9347 6.05433 43.0486 5.91761 43.1336 5.76358ZM16.6102 13.1464C23.2183 13.1236 29.8265 13.1464 36.4344 13.2148C37.1408 13.3743 37.5737 13.8072 37.7332 14.5136C37.8244 19.481 37.8244 24.4485 37.7332 29.4159C37.5246 29.9892 37.1373 30.3765 36.5711 30.578C29.8719 30.6692 23.1727 30.6692 16.4735 30.578C16.0036 30.427 15.6618 30.1307 15.4481 29.6894C15.3569 24.5396 15.3569 19.3899 15.4481 14.2401C15.7316 13.7511 16.1189 13.3865 16.6102 13.1464ZM6.49298 33.9276C7.67876 33.9049 8.86365 33.9276 10.0477 33.996C10.116 34.0644 10.1844 34.1327 10.2528 34.2011C10.3439 35.386 10.3439 36.5708 10.2528 37.7558C10.1844 37.8241 10.116 37.8925 10.0477 37.9609C8.86277 38.052 7.67788 38.052 6.49298 37.9609C6.42462 37.8925 6.35627 37.8241 6.28791 37.7558C6.19676 36.5708 6.19676 35.386 6.28791 34.2011C6.38596 34.1267 6.45432 34.0355 6.49298 33.9276ZM15.6531 33.9276C16.8389 33.9049 18.0238 33.9276 19.2078 33.996C19.2762 34.0644 19.3445 34.1327 19.4129 34.2011C19.5041 35.386 19.5041 36.5708 19.4129 37.7558C19.3445 37.8241 19.2762 37.8925 19.2078 37.9609C18.0229 38.052 16.8381 38.052 15.6531 37.9609C15.5848 37.8925 15.5164 37.8241 15.4481 37.7558C15.3569 36.5708 15.3569 35.386 15.4481 34.2011C15.5461 34.1267 15.6144 34.0355 15.6531 33.9276ZM42.9969 33.9276C44.2617 33.8842 45.5148 33.9297 46.7567 34.0644C46.9083 34.6873 46.9766 35.3252 46.9617 35.9784C47.3597 37.7906 46.6533 38.4742 44.8426 38.0292C43.0319 38.4742 42.3255 37.7906 42.7235 35.9784C42.7463 35.4316 42.769 34.8847 42.7918 34.3378C42.8619 34.1974 42.9303 34.0607 42.9969 33.9276Z" fill="url(#paint0_linear_734_25)"/>
<path opacity="0.979" fill-rule="evenodd" clip-rule="evenodd" d="M1.16406 14.6504C3.76172 14.6504 6.35938 14.6504 8.95703 14.6504C8.95703 19.4811 8.95703 24.3119 8.95703 29.1426C6.35938 29.1426 3.76172 29.1426 1.16406 29.1426C1.16406 24.3119 1.16406 19.4811 1.16406 14.6504Z" fill="url(#paint1_linear_734_25)"/>
<path opacity="0.989" fill-rule="evenodd" clip-rule="evenodd" d="M16.75 14.6504C23.267 14.6504 29.7838 14.6504 36.3008 14.6504C36.3008 19.4811 36.3008 24.3119 36.3008 29.1426C29.7838 29.1426 23.267 29.1426 16.75 29.1426C16.75 24.3119 16.75 19.4811 16.75 14.6504Z" fill="url(#paint2_linear_734_25)"/>
<path opacity="0.973" fill-rule="evenodd" clip-rule="evenodd" d="M44.2266 14.6504C46.7787 14.6504 49.3307 14.6504 51.8828 14.6504C51.8828 19.4811 51.8828 24.3119 51.8828 29.1426C49.3307 29.1426 46.7787 29.1426 44.2266 29.1426C44.2266 24.3119 44.2266 19.4811 44.2266 14.6504Z" fill="url(#paint3_linear_734_25)"/>
<path opacity="0.964" fill-rule="evenodd" clip-rule="evenodd" d="M22.6275 34.4746C32.3881 36.8863 42.1179 39.4385 51.8169 42.1309C52.013 42.0721 52.1725 41.958 52.2954 41.7891C53.2243 41.7193 54.113 41.8787 54.9614 42.2676C55.0946 39.4015 56.4391 37.3279 58.9946 36.0469C62.2022 34.8722 64.9594 35.5329 67.2661 38.0293C69.128 40.821 69.1735 43.6465 67.4029 46.5059C65.7343 48.5814 63.5697 49.4701 60.9087 49.1719C57.7482 48.416 54.6036 47.5956 51.4751 46.7109C51.1444 46.5046 51.0077 46.2085 51.065 45.8223C50.2047 45.5953 49.3387 45.4359 48.4673 45.3438C48.1325 45.4429 47.8134 45.5796 47.5103 45.7539C46.7192 46.6825 45.8078 47.4573 44.7759 48.0781C44.2745 48.1693 43.7733 48.1693 43.272 48.0781C36.2993 44.2272 29.3267 40.3763 22.354 36.5254C21.756 35.744 21.8472 35.0604 22.6275 34.4746ZM61.0454 39.5332C62.8427 39.3034 64.0504 40.0325 64.6685 41.7207C64.812 43.7588 63.8777 44.9437 61.8657 45.2754C59.2664 44.7252 58.469 43.2213 59.4732 40.7637C59.9016 40.2201 60.4257 39.8099 61.0454 39.5332ZM43.1353 42.9512C43.742 42.8518 44.1067 43.1025 44.229 43.7031C43.8262 44.9031 43.2794 44.9942 42.5884 43.9766C42.6603 43.5715 42.8426 43.2297 43.1353 42.9512Z" fill="url(#paint4_linear_734_25)"/>
<path opacity="0.96" fill-rule="evenodd" clip-rule="evenodd" d="M41.0835 48.5566C41.819 48.9695 42.5937 49.3113 43.4077 49.582C44.0467 49.6933 44.662 49.625 45.2534 49.377C45.4357 50.1061 45.618 50.8353 45.8003 51.5645C46.2214 51.66 46.5405 51.8879 46.7573 52.248C47.5321 55.1647 48.3068 58.0814 49.0815 60.998C49.6555 64.567 48.3567 67.1874 45.1851 68.8594C42.0631 70.0213 39.3515 69.4061 37.0503 67.0137C35.0143 64.1237 34.9686 61.207 36.9136 58.2637C38.2782 56.6129 40.0327 55.7471 42.1772 55.666C42.0381 54.9272 41.8558 54.1979 41.6304 53.4785C41.6994 53.111 41.8817 52.8147 42.1772 52.5898C41.7597 51.2616 41.3951 49.9173 41.0835 48.5566ZM41.9038 59.6309C44.692 59.8756 45.6719 61.334 44.8433 64.0059C43.7196 65.4644 42.3295 65.7606 40.6733 64.8945C39.0144 63.2534 39.0599 61.6583 40.8101 60.1094C41.1735 59.9073 41.5381 59.7478 41.9038 59.6309Z" fill="url(#paint5_linear_734_25)"/>
<defs>
<linearGradient id="paint0_linear_734_25" x1="45.7091" y1="4.43353" x2="3.81335" y2="39.5727" gradientUnits="userSpaceOnUse">
<stop stop-color="#3B5DA8"/>
<stop offset="1" stop-color="#E9476E"/>
</linearGradient>
<linearGradient id="paint1_linear_734_25" x1="8.03783" y1="15.7344" x2="-1.71252" y2="19.3282" gradientUnits="userSpaceOnUse">
<stop stop-color="#3B5DA8"/>
<stop offset="1" stop-color="#E9476E"/>
</linearGradient>
<linearGradient id="paint2_linear_734_25" x1="33.9947" y1="15.7344" x2="19.0171" y2="29.5842" gradientUnits="userSpaceOnUse">
<stop stop-color="#3B5DA8"/>
<stop offset="1" stop-color="#E9476E"/>
</linearGradient>
<linearGradient id="paint3_linear_734_25" x1="50.9797" y1="15.7344" x2="41.3604" y2="19.2177" gradientUnits="userSpaceOnUse">
<stop stop-color="#3B5DA8"/>
<stop offset="1" stop-color="#E9476E"/>
</linearGradient>
<linearGradient id="paint4_linear_734_25" x1="63.1853" y1="35.5781" x2="51.5624" y2="60.8137" gradientUnits="userSpaceOnUse">
<stop stop-color="#3B5DA8"/>
<stop offset="1" stop-color="#E9476E"/>
</linearGradient>
<linearGradient id="paint5_linear_734_25" x1="47.5945" y1="50.1179" x2="31.3825" y2="57.4251" gradientUnits="userSpaceOnUse">
<stop stop-color="#3B5DA8"/>
<stop offset="1" stop-color="#E9476E"/>
</linearGradient>
</defs>
</svg>
