<svg width="70" height="71" viewBox="0 0 70 71" fill="none" xmlns="http://www.w3.org/2000/svg">
<path opacity="0.991" fill-rule="evenodd" clip-rule="evenodd" d="M21.8054 6.3103C34.9306 6.28751 48.0556 6.3103 61.1804 6.37866C64.8183 7.23655 67.0286 9.49241 67.8113 13.1462C67.9025 21.7595 67.9025 30.3728 67.8113 38.9861C66.9371 42.8681 64.5445 45.1696 60.6336 45.8904C52.1571 45.9587 43.6806 45.9816 35.2039 45.9587C35.2635 43.3091 35.1951 40.666 34.9988 38.0291C33.9193 34.3974 31.5267 32.1871 27.8211 31.3982C23.5831 31.3298 19.3448 31.307 15.1062 31.3298C15.0834 25.3141 15.1062 19.2984 15.1746 13.283C15.9198 9.55295 18.1302 7.22873 21.8054 6.3103ZM50.5164 13.1462C51.523 13.101 52.5257 13.1466 53.5242 13.283C53.0228 13.3285 52.5216 13.3741 52.0203 13.4197C51.4645 13.4181 50.9632 13.327 50.5164 13.1462ZM57.489 13.1462C58.5609 13.0828 59.6091 13.1512 60.6336 13.3513C60.1095 13.3741 59.5853 13.3969 59.0613 13.4197C58.4831 13.4183 57.9591 13.3271 57.489 13.1462ZM36.8445 18.8884C40.5663 20.8866 44.2577 22.9602 47.9187 25.1091C48.4928 25.8311 48.4473 26.5147 47.782 27.1599C44.2209 29.2594 40.6207 31.2875 36.9812 33.2439C36.423 33.2094 36.0357 32.936 35.8191 32.4236C35.7279 28.1853 35.7279 23.947 35.8191 19.7087C36.0525 19.2863 36.3943 19.0128 36.8445 18.8884Z" fill="url(#paint0_linear_734_94)"/>
<path opacity="0.958" fill-rule="evenodd" clip-rule="evenodd" d="M7.44922 33.9275C14.0119 33.9047 20.5744 33.9275 27.1367 33.9959C30.1512 34.5039 31.9514 36.2584 32.5371 39.2595C32.6283 45.9588 32.6283 52.658 32.5371 59.3572C31.9515 62.0392 30.3338 63.7482 27.6836 64.4841C20.7565 64.5753 13.8295 64.5753 6.90235 64.4841C4.28556 63.8726 2.66772 62.2547 2.04883 59.6306C1.95768 52.7492 1.95768 45.8676 2.04883 38.9861C2.77716 36.1381 4.57729 34.452 7.44922 33.9275ZM7.3125 36.9353C13.9207 36.9125 20.5288 36.9353 27.1367 37.0037C28.7463 37.4736 29.5893 38.5446 29.666 40.2166C29.7572 46.2777 29.7572 52.339 29.666 58.4002C29.5315 60.1083 28.6428 61.1792 27 61.6131C20.5287 61.7042 14.0573 61.7042 7.58594 61.6131C6.15161 61.2725 5.26294 60.3838 4.91993 58.947C4.82877 52.5213 4.82877 46.0955 4.91993 39.6697C5.26384 38.3468 6.06136 37.4354 7.3125 36.9353ZM14.2852 49.6502C14.4938 49.7329 14.6305 49.8923 14.6953 50.1287C14.5131 50.2199 14.3307 50.2199 14.1484 50.1287C14.2629 49.9905 14.3084 49.8309 14.2852 49.6502Z" fill="url(#paint1_linear_734_94)"/>
<path opacity="0.838" fill-rule="evenodd" clip-rule="evenodd" d="M8.54688 40.3537C9.64157 40.331 10.7353 40.3537 11.8281 40.4221C12.0104 40.5588 12.0104 40.6955 11.8281 40.8322C10.7353 40.9006 9.64157 40.9233 8.54688 40.9006C8.54688 40.7184 8.54688 40.536 8.54688 40.3537Z" fill="url(#paint2_linear_734_94)"/>
<path opacity="0.83" fill-rule="evenodd" clip-rule="evenodd" d="M15.5156 40.3537C16.6103 40.331 17.7041 40.3537 18.7969 40.4221C18.9113 40.5603 18.9568 40.7199 18.9336 40.9006C17.7943 40.9006 16.6549 40.9006 15.5156 40.9006C15.5156 40.7184 15.5156 40.536 15.5156 40.3537Z" fill="url(#paint3_linear_734_94)"/>
<path opacity="0.83" fill-rule="evenodd" clip-rule="evenodd" d="M22.6262 40.3535C23.7199 40.3535 24.8137 40.3535 25.9074 40.3535C25.9074 40.5358 25.9074 40.7181 25.9074 40.9004C24.7681 40.9004 23.6287 40.9004 22.4894 40.9004C22.4803 40.7009 22.5258 40.5187 22.6262 40.3535Z" fill="url(#paint4_linear_734_94)"/>
<path opacity="0.922" fill-rule="evenodd" clip-rule="evenodd" d="M21.5313 43.6348C22.5658 43.5463 23.1811 44.0022 23.377 45.002C23.4682 47.7819 23.4682 50.5619 23.377 53.3418C23.2054 54.1512 22.7041 54.5614 21.8731 54.5723C21.2055 54.5574 20.7498 54.2384 20.5059 53.6153C20.4147 50.653 20.4147 47.6908 20.5059 44.7286C20.6873 44.2056 21.0291 43.841 21.5313 43.6348Z" fill="url(#paint5_linear_734_94)"/>
<path opacity="0.947" fill-rule="evenodd" clip-rule="evenodd" d="M13.8787 44.0448C14.6402 43.8966 15.2554 44.1245 15.7244 44.7284C16.6435 47.1591 17.6006 49.5745 18.5955 51.9745C19.1181 53.8202 18.4572 54.5721 16.613 54.2303C16.271 54.0258 16.0431 53.7295 15.9294 53.3417C14.9269 53.1594 13.9242 53.1594 12.9216 53.3417C12.3608 54.4324 11.5404 54.6831 10.4607 54.0936C10.0697 53.5903 9.95578 53.0206 10.1189 52.3846C11.0759 49.9237 12.033 47.4627 12.99 45.0018C13.2216 44.6111 13.5178 44.2921 13.8787 44.0448ZM14.2888 49.6502C14.3121 49.831 14.2665 49.9905 14.1521 50.1288C14.3344 50.22 14.5167 50.22 14.699 50.1288C14.6342 49.8924 14.4975 49.733 14.2888 49.6502Z" fill="url(#paint6_linear_734_94)"/>
<path opacity="0.674" fill-rule="evenodd" clip-rule="evenodd" d="M8.5437 57.5803C9.6384 57.5576 10.7321 57.5803 11.825 57.6486C12.0072 57.8309 12.0072 58.0133 11.825 58.1955C10.7768 58.2867 9.7286 58.2867 8.68042 58.1955C8.56008 58.0101 8.51451 57.805 8.5437 57.5803Z" fill="url(#paint7_linear_734_94)"/>
<path opacity="0.679" fill-rule="evenodd" clip-rule="evenodd" d="M15.6533 57.5803C16.7024 57.5576 17.7507 57.5803 18.7978 57.6486C18.98 57.8309 18.98 58.0133 18.7978 58.1955C17.7496 58.2867 16.7015 58.2867 15.6533 58.1955C15.4854 57.9918 15.4854 57.7867 15.6533 57.5803Z" fill="url(#paint8_linear_734_94)"/>
<path opacity="0.679" fill-rule="evenodd" clip-rule="evenodd" d="M22.6259 57.5803C23.6751 57.5576 24.7233 57.5803 25.7704 57.6486C25.9527 57.8309 25.9527 58.0133 25.7704 58.1955C24.7222 58.2867 23.6741 58.2867 22.6259 58.1955C22.458 57.9918 22.458 57.7867 22.6259 57.5803Z" fill="url(#paint9_linear_734_94)"/>
<defs>
<linearGradient id="paint0_linear_734_94" x1="61.6539" y1="9.26868" x2="20.7074" y2="46.6162" gradientUnits="userSpaceOnUse">
<stop stop-color="#3B5DA8"/>
<stop offset="1" stop-color="#E9476E"/>
</linearGradient>
<linearGradient id="paint1_linear_734_94" x1="28.9932" y1="36.2103" x2="-0.622849" y2="56.5047" gradientUnits="userSpaceOnUse">
<stop stop-color="#3B5DA8"/>
<stop offset="1" stop-color="#E9476E"/>
</linearGradient>
<linearGradient id="paint2_linear_734_94" x1="11.5617" y1="40.3874" x2="11.2957" y2="41.4925" gradientUnits="userSpaceOnUse">
<stop stop-color="#3B5DA8"/>
<stop offset="1" stop-color="#E9476E"/>
</linearGradient>
<linearGradient id="paint3_linear_734_94" x1="18.5356" y1="40.3868" x2="18.2776" y2="41.4772" gradientUnits="userSpaceOnUse">
<stop stop-color="#3B5DA8"/>
<stop offset="1" stop-color="#E9476E"/>
</linearGradient>
<linearGradient id="paint4_linear_734_94" x1="25.5041" y1="40.3944" x2="25.2532" y2="41.4697" gradientUnits="userSpaceOnUse">
<stop stop-color="#3B5DA8"/>
<stop offset="1" stop-color="#E9476E"/>
</linearGradient>
<linearGradient id="paint5_linear_734_94" x1="23.0906" y1="44.4429" x2="18.9623" y2="45.2204" gradientUnits="userSpaceOnUse">
<stop stop-color="#3B5DA8"/>
<stop offset="1" stop-color="#E9476E"/>
</linearGradient>
<linearGradient id="paint6_linear_734_94" x1="17.7398" y1="44.7791" x2="8.42212" y2="50.1337" gradientUnits="userSpaceOnUse">
<stop stop-color="#3B5DA8"/>
<stop offset="1" stop-color="#E9476E"/>
</linearGradient>
<linearGradient id="paint7_linear_734_94" x1="11.5575" y1="57.6235" x2="11.1684" y2="58.9439" gradientUnits="userSpaceOnUse">
<stop stop-color="#3B5DA8"/>
<stop offset="1" stop-color="#E9476E"/>
</linearGradient>
<linearGradient id="paint8_linear_734_94" x1="18.5326" y1="57.6235" x2="18.1416" y2="58.9427" gradientUnits="userSpaceOnUse">
<stop stop-color="#3B5DA8"/>
<stop offset="1" stop-color="#E9476E"/>
</linearGradient>
<linearGradient id="paint9_linear_734_94" x1="25.5053" y1="57.6235" x2="25.1143" y2="58.9427" gradientUnits="userSpaceOnUse">
<stop stop-color="#3B5DA8"/>
<stop offset="1" stop-color="#E9476E"/>
</linearGradient>
</defs>
</svg>
