<svg width="15" height="18" viewBox="0 0 15 18" fill="none" xmlns="http://www.w3.org/2000/svg">
<path d="M10.7375 4.99658C12.1369 5.80451 12.1369 7.82511 10.7375 8.63304L3.14889 13.0141C1.74947 13.8221 0 12.8118 0 11.1959V14.5745C0 16.6311 2.2261 17.9164 4.00761 16.8881L13.6637 11.3131C15.4444 10.2848 15.4444 7.71416 13.6637 6.68589L10.7383 4.99658H10.7375Z" fill="#DDDEEC"/>
<path opacity="0.2" d="M11.7395 7.26099C11.6223 7.80716 11.2894 8.31426 10.7378 8.63306L8.84375 9.72696C11.7512 10.8717 11.0433 12.5211 10.7698 12.9837L13.664 11.3131C13.6999 11.2928 13.7335 11.2702 13.7679 11.2483L13.9484 10.9357L14.1734 9.81526L13.4905 8.27207L11.7395 7.26099Z" fill="black"/>
<path opacity="0.2" d="M13.3263 10.8319C14.9015 9.50984 14.4554 6.97822 12.5231 6.275L11.5987 5.93823C12.0214 6.86727 11.7355 8.05729 10.7384 8.63315L9.65625 9.25824L10.1071 9.42232C11.6245 9.97475 11.9761 11.9618 10.7408 13.001L13.3255 10.8319H13.3263Z" fill="black"/>
<path d="M0.000781231 6.80388C0.000781231 5.18802 1.75025 4.17772 3.14967 4.98565L10.7383 9.36675C12.1377 10.1747 12.1377 12.1953 10.7383 13.0032L13.6637 11.3139C15.4444 10.2856 15.4444 7.71495 13.6637 6.68668L4.00761 1.11166C2.22688 0.0833864 0 1.36873 0 3.42527V6.80388H0.000781231Z" fill="#EEEFF6"/>
<path opacity="0.2" d="M3.55107 1.12891L2.50873 1.48052L1.55078 2.79243V4.77552C2.05945 4.63566 2.62828 4.68488 3.14788 4.98493L5.01456 6.06243C4.43088 2.46816 6.93202 2.80024 6.93202 2.80024L4.03629 1.12891H3.55107Z" fill="black"/>
<path opacity="0.2" d="M3.14908 4.98573L4.23048 5.61004L4.14766 5.13888C3.86715 3.54724 5.41424 2.24862 6.93321 2.80182L3.75854 1.64619C1.82623 0.942965 -0.143582 2.59555 0.214282 4.62084L0.3854 5.58972C0.978454 4.75836 2.15284 4.41065 3.14986 4.98651L3.14908 4.98573Z" fill="black"/>
<path d="M3.14967 13.0141L3.78414 12.6477V4.61919C3.78414 3.00334 5.53361 1.99303 6.93302 2.80096L4.00761 1.11166C2.22688 0.0833863 0 1.36873 0 3.42527V11.1959C0 12.8118 1.74947 13.8221 3.14889 13.0141H3.14967Z" fill="#CCCEE3"/>
<path opacity="0.2" d="M3.14889 13.0142L3.78335 12.6478V10.996C0.961857 13.2986 0 10.967 0 10.967V11.1968C0 12.8126 1.74947 13.8229 3.14889 13.015V13.0142Z" fill="black"/>
<path opacity="0.2" d="M0 11.1958L0.128925 11.9264C0.557111 13.0906 1.97606 13.6915 3.14889 13.014L3.78335 12.6476V12.1319L3.4169 12.4397C2.17922 13.4789 0.280509 12.7874 0 11.1958Z" fill="black"/>
</svg>
