<svg width="19" height="18" viewBox="0 0 19 18" fill="none" xmlns="http://www.w3.org/2000/svg">
<path opacity="0.966" fill-rule="evenodd" clip-rule="evenodd" d="M0.851562 0C2.62109 0 4.39064 0 6.16016 0C7.64832 2.20261 9.15417 4.394 10.6777 6.57422C12.566 4.38729 14.4468 2.1959 16.3203 0C16.8594 0 17.3984 0 17.9375 0C15.7586 2.54228 13.5789 5.08525 11.3984 7.62891C13.7665 11.0866 16.1337 14.5436 18.5 18C16.7305 18 14.9609 18 13.1914 18C11.6113 15.6755 10.0234 13.3552 8.42773 11.0391C6.43402 13.3549 4.4477 15.6752 2.46875 18C1.92969 18 1.39062 18 0.851562 18C3.12981 15.3291 5.41495 12.6631 7.70703 10.002C5.42606 6.6645 3.14092 3.33051 0.851562 0ZM3.03125 1.23047C3.81067 1.18376 4.59584 1.18376 5.38672 1.23047C9.01825 6.44868 12.6628 11.6577 16.3203 16.8574C15.5349 16.8867 14.7497 16.8808 13.9648 16.8398C10.3195 11.6344 6.67498 6.43127 3.03125 1.23047Z" fill="#CCCEE3"/>
</svg>
