<svg width="60" height="69" viewBox="0 0 60 69" fill="none" xmlns="http://www.w3.org/2000/svg">
<path d="M43.4702 13.1584C47.8385 15.6618 47.8385 21.9227 43.4702 24.426L19.7824 38.0009C15.4141 40.5042 9.95312 37.3738 9.95312 32.3671V42.8357C9.95312 49.2079 16.9019 53.1906 22.4629 50.0044L52.6043 32.7302C58.1629 29.5441 58.1629 21.5789 52.6043 18.3928L43.4726 13.1584H43.4702Z" fill="url(#paint0_linear_13_10)"/>
<path opacity="0.2" d="M46.5937 20.1747C46.2279 21.867 45.1888 23.4383 43.4669 24.4261L37.5547 27.8155C46.6303 31.3624 44.4205 36.4732 43.5669 37.9065L52.601 32.7303C52.7132 32.6673 52.8181 32.5971 52.9254 32.5293L53.4888 31.5609L54.1913 28.0891L52.0596 23.3075L46.5937 20.1747Z" fill="black"/>
<path opacity="0.2" d="M51.5459 31.2389C56.463 27.1424 55.0703 19.2982 49.0386 17.1193L46.1533 16.0758C47.4728 18.9544 46.5801 22.6417 43.4679 24.426L40.0898 26.3629L41.4972 26.8713C46.2337 28.583 47.3313 34.7397 43.4752 37.9597L51.5435 31.2389H51.5459Z" fill="black"/>
<path d="M9.95166 18.7584C9.95166 13.7516 15.4126 10.6212 19.7809 13.1246L43.4687 26.6994C47.837 29.2028 47.837 35.4636 43.4687 37.967L52.6004 32.7327C58.159 29.5466 58.159 21.5813 52.6004 18.3952L22.459 1.12099C16.9004 -2.06511 9.94922 1.91752 9.94922 8.28973V18.7584H9.95166Z" fill="url(#paint1_linear_13_10)"/>
<path d="M10.0024 18.7587C10.0024 13.752 15.4634 10.6216 19.8317 13.1249L43.5195 26.6998C47.8878 29.2031 47.8878 35.464 43.5195 37.9674L52.6512 32.733C58.2098 29.5469 58.2098 21.5817 52.6512 18.3956L22.5098 1.12136C16.9512 -2.06475 10 1.91788 10 8.29009V18.7587H10.0024Z" fill="url(#paint2_linear_13_10)"/>
<path opacity="0.2" d="M21.0408 1.17419L17.7871 2.26367L14.7969 6.32862V12.4732C16.3847 12.0399 18.1603 12.1924 19.7822 13.1221L25.6091 16.4607C23.7871 5.32388 31.5944 6.35283 31.5944 6.35283L22.5554 1.17419H21.0408Z" fill="black"/>
<path opacity="0.2" d="M19.7816 13.1245L23.1572 15.0589L22.8987 13.599C22.0231 8.66736 26.8524 4.64357 31.5938 6.35768L21.6841 2.77694C15.6524 0.597996 9.50358 5.71852 10.6207 11.9939L11.1548 14.996C13.006 12.42 16.6719 11.3426 19.7841 13.1269L19.7816 13.1245Z" fill="black"/>
<path d="M19.7809 38.0009L21.7614 36.8654V11.9891C21.7614 6.98236 27.2224 3.85194 31.5907 6.35531L22.459 1.12099C16.9004 -2.06511 9.94922 1.91752 9.94922 8.28973V32.3671C9.94922 37.3738 15.4102 40.5043 19.7785 38.0009H19.7809Z" fill="url(#paint3_linear_13_10)"/>
<path opacity="0.2" d="M19.7824 38.0009L21.7629 36.8654V31.7473C12.9556 38.8821 9.95312 31.6577 9.95312 31.6577V32.3695C9.95312 37.3762 15.4141 40.5067 19.7824 38.0033V38.0009Z" fill="black"/>
<path opacity="0.2" d="M9.95312 32.3671L10.3556 34.6307C11.6921 38.2381 16.1214 40.0999 19.7824 38.0009L21.7629 36.8654V35.2675L20.619 36.2214C16.7556 39.4414 10.8287 37.2987 9.95312 32.3671Z" fill="black"/>
<path d="M13.7317 58.5291L11.0585 69.0945H8.60732L6.8561 62.1049L5.16585 69.0945H2.73659L0 58.5291H2.5439L4.0122 64.9763C4.01707 65.0078 4.04634 65.1216 4.09756 65.3177C4.11951 65.3903 4.14634 65.4993 4.18293 65.6421L5.92683 58.5291H8.22683L10.0171 65.6421C10.0537 65.5089 10.1049 65.2862 10.1732 64.9763L11.6829 58.5291H13.7341H13.7317Z" fill="url(#paint4_linear_13_10)"/>
<path d="M19.6711 58.5291L23.0028 69.0945H20.3223L19.6662 66.9204H16.2248L15.5565 69.0945H13.3711L16.7833 58.5291H19.6687H19.6711ZM16.8248 64.9691H19.0809L17.9638 61.2624L16.8272 64.9691H16.8248Z" fill="url(#paint5_linear_13_10)"/>
<path d="M31.7509 60.5409H26.6826V62.7078H30.6679V64.6979H26.6826V67.0052H31.7509V69.0945H24.1484V58.5291H31.7509V60.5409Z" fill="url(#paint6_linear_13_10)"/>
<path d="M35.7729 67.0052H40.0071V69.0945H33.2461V58.5291H35.7729V67.0052Z" fill="url(#paint7_linear_13_10)"/>
<path d="M46.5188 58.5291L49.8505 69.0945H47.17L46.5139 66.9204H43.0724L42.4041 69.0945H40.2188L43.6309 58.5291H46.5163H46.5188ZM43.6724 64.9691H45.9285L44.8114 61.2624L43.6748 64.9691H43.6724Z" fill="url(#paint8_linear_13_10)"/>
<path d="M50.9961 58.529H55.9546C56.8424 58.529 57.5107 58.638 57.9595 58.8535C58.4083 59.0689 58.7766 59.3788 59.0668 59.7807C59.3571 60.1826 59.5034 60.6717 59.5034 61.2503C59.5034 62.4197 58.8644 63.2017 57.5863 63.5939C58.3254 63.7585 58.879 64.0878 59.2473 64.5768C59.6156 65.0683 59.801 65.6009 59.801 66.1796C59.801 66.9688 59.4985 67.6516 58.8961 68.2278C58.2937 68.804 57.3132 69.0921 55.9571 69.0921H50.9985V58.5266L50.9961 58.529ZM53.4839 60.3932V62.7078H55.3717C56.0619 62.7078 56.4985 62.5722 56.6766 62.301C56.8546 62.0299 56.9449 61.7708 56.9449 61.5239C56.9449 61.2551 56.8717 61.0251 56.7229 60.8315C56.5741 60.6378 56.4132 60.5167 56.2351 60.4683C56.0595 60.4199 55.7107 60.3957 55.1912 60.3957H53.4839V60.3932ZM53.4839 64.5889V67.1359H55.3985C56.0522 67.1359 56.5132 67.0221 56.7839 66.7945C57.0546 66.5669 57.1888 66.2498 57.1888 65.843C57.1888 65.5017 57.0595 65.2087 56.7985 64.9618C56.54 64.7148 56.1083 64.5889 55.5059 64.5889H53.4839Z" fill="url(#paint9_linear_13_10)"/>
<defs>
<linearGradient id="paint0_linear_13_10" x1="51.2507" y1="15.9983" x2="12.4408" y2="48.803" gradientUnits="userSpaceOnUse">
<stop stop-color="#3B5DA8"/>
<stop offset="1" stop-color="#E9476E"/>
</linearGradient>
<linearGradient id="paint1_linear_13_10" x1="33.359" y1="4.33727e-05" x2="33.359" y2="37.9646" gradientUnits="userSpaceOnUse">
<stop stop-color="#3B5DA8"/>
<stop offset="1" stop-color="#E9476E"/>
</linearGradient>
<linearGradient id="paint2_linear_13_10" x1="33.4098" y1="0.000409584" x2="33.4098" y2="37.9649" gradientUnits="userSpaceOnUse">
<stop stop-color="#3B5DA8"/>
<stop offset="1" stop-color="#E9476E"/>
</linearGradient>
<linearGradient id="paint3_linear_13_10" x1="20.7712" y1="4.33726e-05" x2="20.7712" y2="38.8821" gradientUnits="userSpaceOnUse">
<stop stop-color="#E9476E"/>
<stop offset="1" stop-color="#3B5DA8"/>
</linearGradient>
<linearGradient id="paint4_linear_13_10" x1="-1.32927" y1="64.9182" x2="69.1171" y2="64.9182" gradientUnits="userSpaceOnUse">
<stop stop-color="#3B5DA8"/>
<stop offset="1" stop-color="#E9476E"/>
</linearGradient>
<linearGradient id="paint5_linear_13_10" x1="-1.3289" y1="64.9182" x2="69.1174" y2="64.9182" gradientUnits="userSpaceOnUse">
<stop stop-color="#3B5DA8"/>
<stop offset="1" stop-color="#E9476E"/>
</linearGradient>
<linearGradient id="paint6_linear_13_10" x1="-1.3296" y1="64.9182" x2="69.1167" y2="64.9182" gradientUnits="userSpaceOnUse">
<stop stop-color="#3B5DA8"/>
<stop offset="1" stop-color="#E9476E"/>
</linearGradient>
<linearGradient id="paint7_linear_13_10" x1="-1.32952" y1="64.9182" x2="69.1168" y2="64.9182" gradientUnits="userSpaceOnUse">
<stop stop-color="#3B5DA8"/>
<stop offset="1" stop-color="#E9476E"/>
</linearGradient>
<linearGradient id="paint8_linear_13_10" x1="-1.3276" y1="64.9182" x2="69.1188" y2="64.9182" gradientUnits="userSpaceOnUse">
<stop stop-color="#3B5DA8"/>
<stop offset="1" stop-color="#E9476E"/>
</linearGradient>
<linearGradient id="paint9_linear_13_10" x1="-1.32828" y1="64.9182" x2="69.118" y2="64.9182" gradientUnits="userSpaceOnUse">
<stop stop-color="#3B5DA8"/>
<stop offset="1" stop-color="#E9476E"/>
</linearGradient>
</defs>
</svg>
