<svg width="768" height="235" viewBox="0 0 768 235" fill="none" xmlns="http://www.w3.org/2000/svg">
<path d="M152.479 60.3037C172.35 71.7759 172.35 100.468 152.479 111.94L44.7245 174.149C24.8534 185.622 0.0117188 171.276 0.0117188 148.331V196.306C0.0117188 225.508 31.6213 243.759 56.9179 229.158L194.03 149.996C219.315 135.395 219.315 98.8921 194.03 84.2911L152.49 60.3037H152.479Z" fill="url(#paint0_linear_125_1753)"/>
<path opacity="0.2" d="M166.7 92.4561C165.036 100.211 160.309 107.412 152.476 111.939L125.582 127.472C166.866 143.726 156.814 167.147 152.931 173.716L194.027 149.995C194.537 149.706 195.014 149.384 195.503 149.074L198.066 144.636L201.261 128.726L191.564 106.813L166.7 92.4561Z" fill="black"/>
<path opacity="0.2" d="M189.226 143.161C211.594 124.388 205.259 88.4403 177.821 78.4548L164.695 73.6729C170.698 86.8648 166.637 103.762 152.48 111.939L137.113 120.815L143.515 123.145C165.062 130.99 170.054 159.204 152.513 173.96L189.215 143.161H189.226Z" fill="black"/>
<path d="M0.0110931 85.9658C0.0110931 63.0214 24.8528 48.6756 44.7239 60.1478L152.478 122.357C172.349 133.83 172.349 162.521 152.478 173.993L194.018 150.006C219.303 135.405 219.303 98.9025 194.018 84.3016L56.9062 5.13885C31.6207 -9.46214 0 8.7891 0 37.9911V85.9658H0.0110931Z" fill="url(#paint1_linear_125_1753)"/>
<path opacity="0.2" d="M50.45 5.38379L35.6493 10.3765L22.0469 29.005V57.1641C29.2697 55.1781 37.3469 55.8771 44.725 60.1375L71.2309 75.4375C62.943 24.4006 98.458 29.116 98.458 29.116L57.34 5.38379H50.45Z" fill="black"/>
<path opacity="0.2" d="M44.7241 60.1479L60.0796 69.0128L58.9035 62.3225C54.9204 39.7221 76.8885 21.2822 98.4571 29.1375L53.3782 12.728C25.9403 2.74249 -2.03012 26.2084 3.05138 54.9666L5.48118 68.7244C13.9023 56.9193 30.578 51.982 44.7352 60.159L44.7241 60.1479Z" fill="black"/>
<path d="M44.7239 174.149L53.733 168.945V54.9442C53.733 31.9998 78.5747 17.654 98.4458 29.1262L56.9062 5.13885C31.6207 -9.46214 0 8.7891 0 37.9911V148.331C0 171.275 24.8417 185.621 44.7128 174.149H44.7239Z" fill="url(#paint2_linear_125_1753)"/>
<path opacity="0.2" d="M44.7245 174.148L53.7336 168.944V145.49C13.6696 178.187 0.0117188 145.079 0.0117188 145.079V148.341C0.0117188 171.285 24.8534 185.631 44.7245 174.159V174.148Z" fill="black"/>
<path opacity="0.2" d="M0.0117188 148.331L1.84239 158.705C7.92244 175.236 28.0709 183.768 44.7245 174.149L53.7336 168.946V161.623L48.5301 165.994C30.9556 180.751 3.99482 170.932 0.0117188 148.331Z" fill="black"/>
<path d="M364.84 29.0117L341.56 121.707H320.213L304.962 60.3844L290.242 121.707H269.086L245.254 29.0117H267.408L280.195 85.5761C280.238 85.8522 280.492 86.8506 280.939 88.5711C281.13 89.2083 281.363 90.1641 281.682 91.4173L296.869 29.0117H316.899L332.49 91.4173C332.809 90.2491 333.255 88.2949 333.849 85.5761L346.998 29.0117H364.861H364.84Z" fill="url(#paint3_linear_125_1753)"/>
<path d="M416.56 29.0117L445.575 121.707H422.232L416.518 102.633H386.547L380.727 121.707H361.695L391.411 29.0117H416.539H416.56ZM391.772 85.5124H411.42L401.692 52.9926L391.794 85.5124H391.772Z" fill="url(#paint4_linear_125_1753)"/>
<path d="M521.766 46.6629H477.628V65.6734H512.335V83.1334H477.628V103.376H521.766V121.707H455.559V29.0117H521.766V46.6629Z" fill="url(#paint5_linear_125_1753)"/>
<path d="M556.795 103.376H593.669V121.707H534.789V29.0117H556.795V103.376Z" fill="url(#paint6_linear_125_1753)"/>
<path d="M650.357 29.0117L679.372 121.707H656.029L650.315 102.633H620.344L614.524 121.707H595.492L625.208 29.0117H650.336H650.357ZM625.569 85.5124H645.217L635.489 52.9926L625.59 85.5124H625.569Z" fill="url(#paint7_linear_125_1753)"/>
<path d="M689.359 29.0115H732.542C740.274 29.0115 746.094 29.9673 750.002 31.8577C753.91 33.7482 757.118 36.467 759.645 39.993C762.173 43.519 763.447 47.8096 763.447 52.8862C763.447 63.1455 757.882 70.0063 746.752 73.4473C753.188 74.8917 758.01 77.7805 761.217 82.0711C764.425 86.383 766.039 91.056 766.039 96.1326C766.039 103.057 763.405 109.047 758.158 114.102C752.912 119.158 744.373 121.685 732.563 121.685H689.381V28.9902L689.359 29.0115ZM711.025 45.3669V65.6732H727.465C733.477 65.6732 737.279 64.4837 738.829 62.1047C740.38 59.7257 741.166 57.453 741.166 55.2864C741.166 52.9286 740.529 50.9108 739.233 49.2115C737.937 47.5122 736.535 46.4502 734.985 46.0254C733.455 45.6006 730.418 45.3882 725.894 45.3882H711.025V45.3669ZM711.025 82.1773V104.523H727.699C733.392 104.523 737.406 103.524 739.764 101.528C742.122 99.5311 743.29 96.7485 743.29 93.1801C743.29 90.1851 742.164 87.615 739.891 85.4484C737.64 83.2818 733.88 82.1773 728.634 82.1773H711.025Z" fill="url(#paint8_linear_125_1753)"/>
<path d="M767.073 194.856H758.326V178.213C758.326 176.197 758.248 174.818 758.091 174.074C757.935 173.33 757.553 172.704 756.946 172.195C756.34 171.667 755.576 171.403 754.657 171.403C751.584 171.403 750.048 173.673 750.048 178.213V194.856H741.301V165.209H749.432V170.229C750.782 167.841 752.113 166.305 753.424 165.62C754.735 164.935 756.154 164.593 757.68 164.593C760.498 164.593 762.768 165.356 764.49 166.882C766.212 168.389 767.073 171.364 767.073 175.806V194.856Z" fill="white"/>
<path d="M721.431 164.593C725.952 164.593 729.474 166.07 731.999 169.025C734.543 171.98 735.815 175.679 735.815 180.121C735.815 184.504 734.494 188.164 731.852 191.099C729.23 194.015 725.737 195.473 721.373 195.473C717.146 195.473 713.76 194.025 711.216 191.129C708.692 188.232 707.43 184.514 707.43 179.974C707.43 176.823 707.997 174.152 709.132 171.961C710.287 169.749 711.862 167.968 713.858 166.618C715.854 165.268 718.379 164.593 721.431 164.593ZM721.666 170.317C720.003 170.317 718.75 170.963 717.909 172.254C717.067 173.526 716.647 176.07 716.647 179.886C716.647 183.389 717.048 185.904 717.85 187.43C718.653 188.956 719.905 189.72 721.608 189.72C723.095 189.72 724.298 189.074 725.218 187.782C726.138 186.471 726.598 183.986 726.598 180.326C726.598 176.432 726.187 173.79 725.365 172.401C724.562 171.011 723.33 170.317 721.666 170.317Z" fill="white"/>
<path d="M701.911 165.209V194.857H693.164V165.209H701.911ZM701.911 153.967V162.714H693.164V153.967H701.911Z" fill="white"/>
<path d="M681.86 172.02V184.554C681.86 186.119 682.095 187.166 682.564 187.694C683.034 188.223 684.14 188.487 685.881 188.487C686.684 188.487 687.613 188.448 688.67 188.37V194.857C686.126 195.287 684.296 195.503 683.181 195.503C679.541 195.503 676.958 194.808 675.431 193.418C673.905 192.009 673.142 189.475 673.142 185.816V172.02H668.445V165.209H673.641L674.345 156.462L681.86 155.875V165.209H688.259V172.02H681.86Z" fill="white"/>
<path d="M665.337 194.856H656.854C656.58 193.682 656.443 192.136 656.443 190.219C654.955 192.332 653.468 193.741 651.981 194.446C650.513 195.13 648.84 195.473 646.961 195.473C644.183 195.473 641.932 194.719 640.21 193.213C638.508 191.706 637.656 189.68 637.656 187.136C637.656 185.277 638.155 183.565 639.153 182C640.151 180.434 641.756 179.211 643.967 178.33C646.179 177.43 650.21 176.765 656.061 176.334V174.632C656.061 171.755 654.623 170.317 651.746 170.317C648.674 170.317 646.961 171.755 646.609 174.632L638.537 173.869C639.065 170.503 640.66 168.115 643.322 166.706C645.983 165.297 648.997 164.593 652.362 164.593C654.378 164.593 656.276 164.828 658.057 165.297C659.838 165.767 661.227 166.471 662.225 167.411C663.223 168.35 663.898 169.348 664.251 170.405C664.603 171.442 664.779 173.262 664.779 175.865V189.309C664.779 191.892 664.965 193.741 665.337 194.856ZM656.061 180.649C649.936 181.256 646.873 183.105 646.873 186.197C646.873 187.234 647.196 188.134 647.842 188.898C648.488 189.641 649.408 190.013 650.601 190.013C652.147 190.013 653.439 189.377 654.476 188.105C655.533 186.814 656.061 185.228 656.061 183.35V180.649Z" fill="white"/>
<path d="M627.03 194.857H618.547V165.209H626.56V170.728C627.793 166.618 629.926 164.563 632.96 164.563C633.39 164.563 633.918 164.593 634.545 164.652V173.282C632.764 173.282 631.374 173.556 630.376 174.103C629.398 174.651 628.596 175.64 627.969 177.068C627.343 178.477 627.03 180.385 627.03 182.792V194.857Z" fill="white"/>
<path d="M612.998 181.501H593.918C593.899 182.029 593.889 182.489 593.889 182.88C593.889 184.994 594.447 186.589 595.562 187.665C596.697 188.741 598.047 189.279 599.613 189.279C602.529 189.279 604.28 187.724 604.867 184.612L612.793 185.199C610.581 192.048 606.09 195.473 599.319 195.473C596.364 195.473 593.85 194.886 591.775 193.712C589.721 192.518 588.018 190.786 586.668 188.516C585.337 186.246 584.672 183.526 584.672 180.356C584.672 175.64 586.012 171.833 588.693 168.937C591.394 166.041 594.858 164.593 599.085 164.593C602.901 164.593 606.169 165.943 608.889 168.644C611.628 171.325 612.998 175.61 612.998 181.501ZM593.889 176.422H604.427C604.153 172.352 602.48 170.317 599.407 170.317C596.12 170.317 594.28 172.352 593.889 176.422Z" fill="white"/>
<path d="M579.151 194.856H570.404V178.213C570.404 176.197 570.326 174.818 570.169 174.074C570.013 173.33 569.631 172.704 569.024 172.195C568.418 171.667 567.655 171.403 566.735 171.403C563.662 171.403 562.126 173.673 562.126 178.213V194.856H553.379V165.209H561.51V170.229C562.86 167.841 564.191 166.305 565.502 165.62C566.813 164.935 568.232 164.593 569.758 164.593C572.576 164.593 574.846 165.356 576.568 166.882C578.29 168.389 579.151 171.364 579.151 175.806V194.856Z" fill="white"/>
<path d="M547.834 181.501H528.754C528.735 182.029 528.725 182.489 528.725 182.88C528.725 184.994 529.283 186.589 530.398 187.665C531.533 188.741 532.883 189.279 534.449 189.279C537.365 189.279 539.116 187.724 539.703 184.612L547.629 185.199C545.417 192.048 540.926 195.473 534.155 195.473C531.2 195.473 528.686 194.886 526.611 193.712C524.557 192.518 522.854 190.786 521.504 188.516C520.173 186.246 519.508 183.526 519.508 180.356C519.508 175.64 520.848 171.833 523.529 168.937C526.23 166.041 529.694 164.593 533.92 164.593C537.736 164.593 541.005 165.943 543.725 168.644C546.464 171.325 547.834 175.61 547.834 181.501ZM528.725 176.422H539.263C538.989 172.352 537.316 170.317 534.243 170.317C530.956 170.317 529.116 172.352 528.725 176.422Z" fill="white"/>
<path d="M517.538 165.884C516.618 165.689 515.845 165.591 515.219 165.591C513.281 165.591 512.146 166.452 511.814 168.174C513.399 169.837 514.191 171.716 514.191 173.81C514.191 176.608 513.017 178.839 510.669 180.502C508.34 182.166 504.974 182.997 500.571 182.997C499.006 182.997 497.479 182.851 495.992 182.557C494.994 183.144 494.495 183.898 494.495 184.817C494.495 185.835 494.916 186.51 495.757 186.843C496.599 187.175 498.624 187.42 501.834 187.577C506.393 187.811 509.534 188.095 511.256 188.428C512.978 188.761 514.426 189.563 515.6 190.835C516.775 192.107 517.362 193.692 517.362 195.59C517.362 198.31 516.099 200.61 513.575 202.488C511.07 204.367 506.618 205.306 500.219 205.306C494.211 205.306 490.161 204.651 488.067 203.34C485.973 202.048 484.926 200.404 484.926 198.408C484.926 195.766 486.619 193.986 490.004 193.066C487.499 191.813 486.247 190.052 486.247 187.782C486.247 184.945 488.223 182.733 492.176 181.148C488.673 179.7 486.922 177.283 486.922 173.898C486.922 171.139 488.125 168.898 490.532 167.176C492.959 165.454 496.305 164.593 500.571 164.593C503.272 164.593 505.884 165.023 508.409 165.884C508.585 164.201 509.074 162.822 509.876 161.745C510.698 160.649 512.43 160.102 515.072 160.102C515.933 160.102 516.755 160.18 517.538 160.336V165.884ZM500.513 169.319C499.006 169.319 497.822 169.73 496.961 170.551C496.119 171.354 495.699 172.42 495.699 173.751C495.699 176.765 497.313 178.272 500.542 178.272C502.107 178.272 503.331 177.831 504.211 176.951C505.111 176.07 505.561 175.003 505.561 173.751C505.561 172.577 505.141 171.55 504.299 170.669C503.458 169.769 502.196 169.319 500.513 169.319ZM494.671 194.651C494.319 194.651 493.869 194.886 493.321 195.355C492.793 195.825 492.528 196.393 492.528 197.058C492.528 198.389 493.38 199.22 495.082 199.553C496.785 199.886 498.781 200.052 501.07 200.052C504.064 200.052 506.158 199.827 507.352 199.377C508.565 198.927 509.172 198.203 509.172 197.205C509.172 196.441 508.663 195.854 507.646 195.443C506.648 195.033 503.967 194.827 499.603 194.827L497.841 194.856C496.765 194.856 496.041 194.827 495.669 194.768C495.258 194.69 494.926 194.651 494.671 194.651Z" fill="white"/>
<path d="M467.346 181.501H448.266C448.246 182.029 448.237 182.489 448.237 182.88C448.237 184.994 448.794 186.589 449.91 187.665C451.045 188.741 452.395 189.279 453.961 189.279C456.876 189.279 458.628 187.724 459.215 184.612L467.14 185.199C464.929 192.048 460.438 195.473 453.667 195.473C450.712 195.473 448.197 194.886 446.123 193.712C444.068 192.518 442.366 190.786 441.016 188.516C439.685 186.246 439.02 183.526 439.02 180.356C439.02 175.64 440.36 171.833 443.041 168.937C445.742 166.041 449.205 164.593 453.432 164.593C457.248 164.593 460.516 165.943 463.236 168.644C465.976 171.325 467.346 175.61 467.346 181.501ZM448.237 176.422H458.775C458.501 172.352 456.827 170.317 453.755 170.317C450.467 170.317 448.628 172.352 448.237 176.422Z" fill="white"/>
<path d="M433.501 165.209V194.857H424.754V165.209H433.501ZM433.501 153.967V162.714H424.754V153.967H433.501Z" fill="white"/>
<path d="M420.935 165.209L410.779 194.856H403.969L393.812 165.209H402.912L408.607 183.995L414.448 165.209H420.935Z" fill="white"/>
<path d="M378.283 164.593C382.803 164.593 386.326 166.07 388.85 169.025C391.394 171.98 392.666 175.679 392.666 180.121C392.666 184.504 391.345 188.164 388.704 191.099C386.081 194.015 382.588 195.473 378.224 195.473C373.997 195.473 370.612 194.025 368.068 191.129C365.543 188.232 364.281 184.514 364.281 179.974C364.281 176.823 364.849 174.152 365.984 171.961C367.138 169.749 368.714 167.968 370.71 166.618C372.706 165.268 375.23 164.593 378.283 164.593ZM378.518 170.317C376.854 170.317 375.602 170.963 374.761 172.254C373.919 173.526 373.498 176.07 373.498 179.886C373.498 183.389 373.899 185.904 374.702 187.43C375.504 188.956 376.757 189.72 378.459 189.72C379.946 189.72 381.15 189.074 382.07 187.782C382.989 186.471 383.449 183.986 383.449 180.326C383.449 176.432 383.038 173.79 382.216 172.401C381.414 171.011 380.181 170.317 378.518 170.317Z" fill="white"/>
<path d="M358.766 194.856H350.018V178.448C350.018 176.139 349.95 174.642 349.813 173.957C349.676 173.252 349.314 172.675 348.727 172.225C348.159 171.755 347.367 171.52 346.349 171.52C345.39 171.52 344.412 171.863 343.414 172.548C342.416 173.233 341.917 175.199 341.917 178.448V194.856H333.198V178.448C333.198 176.08 333.091 174.553 332.876 173.869C332.66 173.164 332.249 172.597 331.643 172.166C331.056 171.736 330.302 171.52 329.382 171.52C327.876 171.52 326.75 172 326.007 172.959C325.283 173.898 324.921 175.728 324.921 178.448V194.856H316.438V165.209H324.657V169.73C326.046 166.305 328.825 164.593 332.993 164.593C336.77 164.593 339.5 166.305 341.183 169.73C342.826 166.305 345.693 164.593 349.783 164.593C351.74 164.593 353.423 164.994 354.832 165.796C356.241 166.599 357.249 167.646 357.856 168.937C358.462 170.229 358.766 172.45 358.766 175.6V194.856Z" fill="white"/>
<path d="M294.185 165.209V194.857H285.438V165.209H294.185ZM294.185 153.967V162.714H285.438V153.967H294.185Z" fill="white"/>
<path d="M268.972 154.789L281.506 194.857H271.408L268.972 186.609H255.997L253.473 194.857H245.254L258.081 154.789H268.972ZM258.258 179.211H266.77L262.514 165.151L258.258 179.211Z" fill="white"/>
<defs>
<linearGradient id="paint0_linear_125_1753" x1="187.872" y1="73.3181" x2="10.2413" y2="222.357" gradientUnits="userSpaceOnUse">
<stop stop-color="#3B5DA8"/>
<stop offset="1" stop-color="#E9476E"/>
</linearGradient>
<linearGradient id="paint1_linear_125_1753" x1="106.49" y1="0.001877" x2="106.49" y2="173.982" gradientUnits="userSpaceOnUse">
<stop stop-color="#3B5DA8"/>
<stop offset="1" stop-color="#E9476E"/>
</linearGradient>
<linearGradient id="paint2_linear_125_1753" x1="49.2284" y1="0.001877" x2="49.2284" y2="178.187" gradientUnits="userSpaceOnUse">
<stop stop-color="#E9476E"/>
<stop offset="1" stop-color="#3B5DA8"/>
</linearGradient>
<linearGradient id="paint3_linear_125_1753" x1="233.678" y1="85.0663" x2="847.177" y2="85.0663" gradientUnits="userSpaceOnUse">
<stop stop-color="#3B5DA8"/>
<stop offset="1" stop-color="#E9476E"/>
</linearGradient>
<linearGradient id="paint4_linear_125_1753" x1="233.677" y1="85.0663" x2="847.176" y2="85.0663" gradientUnits="userSpaceOnUse">
<stop stop-color="#3B5DA8"/>
<stop offset="1" stop-color="#E9476E"/>
</linearGradient>
<linearGradient id="paint5_linear_125_1753" x1="233.677" y1="85.0663" x2="847.176" y2="85.0663" gradientUnits="userSpaceOnUse">
<stop stop-color="#3B5DA8"/>
<stop offset="1" stop-color="#E9476E"/>
</linearGradient>
<linearGradient id="paint6_linear_125_1753" x1="233.679" y1="85.0663" x2="847.178" y2="85.0663" gradientUnits="userSpaceOnUse">
<stop stop-color="#3B5DA8"/>
<stop offset="1" stop-color="#E9476E"/>
</linearGradient>
<linearGradient id="paint7_linear_125_1753" x1="233.675" y1="85.0663" x2="847.175" y2="85.0663" gradientUnits="userSpaceOnUse">
<stop stop-color="#3B5DA8"/>
<stop offset="1" stop-color="#E9476E"/>
</linearGradient>
<linearGradient id="paint8_linear_125_1753" x1="233.68" y1="85.0661" x2="847.179" y2="85.0661" gradientUnits="userSpaceOnUse">
<stop stop-color="#3B5DA8"/>
<stop offset="1" stop-color="#E9476E"/>
</linearGradient>
</defs>
</svg>
